G04 #@! TF.GenerationSoftware,KiCad,Pcbnew,8.0.8*
G04 #@! TF.CreationDate,2025-05-09T16:42:09+03:00*
G04 #@! TF.ProjectId,Lick_Valves_final,4c69636b-5f56-4616-9c76-65735f66696e,rev?*
G04 #@! TF.SameCoordinates,Original*
G04 #@! TF.FileFunction,Legend,Top*
G04 #@! TF.FilePolarity,Positive*
%FSLAX46Y46*%
G04 Gerber Fmt 4.6, Leading zero omitted, Abs format (unit mm)*
G04 Created by KiCad (PCBNEW 8.0.8) date 2025-05-09 16:42:09*
%MOMM*%
%LPD*%
G01*
G04 APERTURE LIST*
%ADD10C,0.150000*%
%ADD11C,0.304800*%
%ADD12C,0.120000*%
%ADD13O,1.700000X1.700000*%
%ADD14C,1.600000*%
%ADD15O,1.600000X1.600000*%
%ADD16R,1.700000X1.700000*%
%ADD17C,2.000000*%
%ADD18R,1.600000X1.600000*%
%ADD19R,2.200000X2.200000*%
%ADD20O,2.200000X2.200000*%
%ADD21O,1.050000X1.500000*%
%ADD22C,1.700000*%
%ADD23C,5.000000*%
G04 APERTURE END LIST*
D10*
X56611779Y-103169819D02*
X56611779Y-102169819D01*
X56611779Y-102169819D02*
X57183207Y-103169819D01*
X57183207Y-103169819D02*
X57183207Y-102169819D01*
X57659398Y-103169819D02*
X57659398Y-102169819D01*
X57659398Y-102169819D02*
X58040350Y-102169819D01*
X58040350Y-102169819D02*
X58135588Y-102217438D01*
X58135588Y-102217438D02*
X58183207Y-102265057D01*
X58183207Y-102265057D02*
X58230826Y-102360295D01*
X58230826Y-102360295D02*
X58230826Y-102503152D01*
X58230826Y-102503152D02*
X58183207Y-102598390D01*
X58183207Y-102598390D02*
X58135588Y-102646009D01*
X58135588Y-102646009D02*
X58040350Y-102693628D01*
X58040350Y-102693628D02*
X57659398Y-102693628D01*
X58659398Y-103169819D02*
X58659398Y-102169819D01*
X58659398Y-102169819D02*
X59230826Y-103169819D01*
X59230826Y-103169819D02*
X59230826Y-102169819D01*
X96794819Y-115814411D02*
X96794819Y-116385839D01*
X96794819Y-116100125D02*
X95794819Y-116100125D01*
X95794819Y-116100125D02*
X95937676Y-116195363D01*
X95937676Y-116195363D02*
X96032914Y-116290601D01*
X96032914Y-116290601D02*
X96080533Y-116385839D01*
X95794819Y-115195363D02*
X95794819Y-115100125D01*
X95794819Y-115100125D02*
X95842438Y-115004887D01*
X95842438Y-115004887D02*
X95890057Y-114957268D01*
X95890057Y-114957268D02*
X95985295Y-114909649D01*
X95985295Y-114909649D02*
X96175771Y-114862030D01*
X96175771Y-114862030D02*
X96413866Y-114862030D01*
X96413866Y-114862030D02*
X96604342Y-114909649D01*
X96604342Y-114909649D02*
X96699580Y-114957268D01*
X96699580Y-114957268D02*
X96747200Y-115004887D01*
X96747200Y-115004887D02*
X96794819Y-115100125D01*
X96794819Y-115100125D02*
X96794819Y-115195363D01*
X96794819Y-115195363D02*
X96747200Y-115290601D01*
X96747200Y-115290601D02*
X96699580Y-115338220D01*
X96699580Y-115338220D02*
X96604342Y-115385839D01*
X96604342Y-115385839D02*
X96413866Y-115433458D01*
X96413866Y-115433458D02*
X96175771Y-115433458D01*
X96175771Y-115433458D02*
X95985295Y-115385839D01*
X95985295Y-115385839D02*
X95890057Y-115338220D01*
X95890057Y-115338220D02*
X95842438Y-115290601D01*
X95842438Y-115290601D02*
X95794819Y-115195363D01*
X96794819Y-114433458D02*
X95794819Y-114433458D01*
X96794819Y-113862030D02*
X96223390Y-114290601D01*
X95794819Y-113862030D02*
X96366247Y-114433458D01*
X96794819Y-113481077D02*
X96794819Y-113242982D01*
X96794819Y-113242982D02*
X96604342Y-113242982D01*
X96604342Y-113242982D02*
X96556723Y-113338220D01*
X96556723Y-113338220D02*
X96461485Y-113433458D01*
X96461485Y-113433458D02*
X96318628Y-113481077D01*
X96318628Y-113481077D02*
X96080533Y-113481077D01*
X96080533Y-113481077D02*
X95937676Y-113433458D01*
X95937676Y-113433458D02*
X95842438Y-113338220D01*
X95842438Y-113338220D02*
X95794819Y-113195363D01*
X95794819Y-113195363D02*
X95794819Y-113004887D01*
X95794819Y-113004887D02*
X95842438Y-112862030D01*
X95842438Y-112862030D02*
X95937676Y-112766792D01*
X95937676Y-112766792D02*
X96080533Y-112719173D01*
X96080533Y-112719173D02*
X96318628Y-112719173D01*
X96318628Y-112719173D02*
X96461485Y-112766792D01*
X96461485Y-112766792D02*
X96556723Y-112862030D01*
X96556723Y-112862030D02*
X96604342Y-112957268D01*
X96604342Y-112957268D02*
X96794819Y-112957268D01*
X96794819Y-112957268D02*
X96794819Y-112719173D01*
X93819819Y-115814411D02*
X93819819Y-116385839D01*
X93819819Y-116100125D02*
X92819819Y-116100125D01*
X92819819Y-116100125D02*
X92962676Y-116195363D01*
X92962676Y-116195363D02*
X93057914Y-116290601D01*
X93057914Y-116290601D02*
X93105533Y-116385839D01*
X92819819Y-115195363D02*
X92819819Y-115100125D01*
X92819819Y-115100125D02*
X92867438Y-115004887D01*
X92867438Y-115004887D02*
X92915057Y-114957268D01*
X92915057Y-114957268D02*
X93010295Y-114909649D01*
X93010295Y-114909649D02*
X93200771Y-114862030D01*
X93200771Y-114862030D02*
X93438866Y-114862030D01*
X93438866Y-114862030D02*
X93629342Y-114909649D01*
X93629342Y-114909649D02*
X93724580Y-114957268D01*
X93724580Y-114957268D02*
X93772200Y-115004887D01*
X93772200Y-115004887D02*
X93819819Y-115100125D01*
X93819819Y-115100125D02*
X93819819Y-115195363D01*
X93819819Y-115195363D02*
X93772200Y-115290601D01*
X93772200Y-115290601D02*
X93724580Y-115338220D01*
X93724580Y-115338220D02*
X93629342Y-115385839D01*
X93629342Y-115385839D02*
X93438866Y-115433458D01*
X93438866Y-115433458D02*
X93200771Y-115433458D01*
X93200771Y-115433458D02*
X93010295Y-115385839D01*
X93010295Y-115385839D02*
X92915057Y-115338220D01*
X92915057Y-115338220D02*
X92867438Y-115290601D01*
X92867438Y-115290601D02*
X92819819Y-115195363D01*
X93819819Y-114433458D02*
X92819819Y-114433458D01*
X93819819Y-113862030D02*
X93248390Y-114290601D01*
X92819819Y-113862030D02*
X93391247Y-114433458D01*
X93819819Y-113481077D02*
X93819819Y-113242982D01*
X93819819Y-113242982D02*
X93629342Y-113242982D01*
X93629342Y-113242982D02*
X93581723Y-113338220D01*
X93581723Y-113338220D02*
X93486485Y-113433458D01*
X93486485Y-113433458D02*
X93343628Y-113481077D01*
X93343628Y-113481077D02*
X93105533Y-113481077D01*
X93105533Y-113481077D02*
X92962676Y-113433458D01*
X92962676Y-113433458D02*
X92867438Y-113338220D01*
X92867438Y-113338220D02*
X92819819Y-113195363D01*
X92819819Y-113195363D02*
X92819819Y-113004887D01*
X92819819Y-113004887D02*
X92867438Y-112862030D01*
X92867438Y-112862030D02*
X92962676Y-112766792D01*
X92962676Y-112766792D02*
X93105533Y-112719173D01*
X93105533Y-112719173D02*
X93343628Y-112719173D01*
X93343628Y-112719173D02*
X93486485Y-112766792D01*
X93486485Y-112766792D02*
X93581723Y-112862030D01*
X93581723Y-112862030D02*
X93629342Y-112957268D01*
X93629342Y-112957268D02*
X93819819Y-112957268D01*
X93819819Y-112957268D02*
X93819819Y-112719173D01*
X40956779Y-101829819D02*
X40956779Y-100829819D01*
X40956779Y-100829819D02*
X41194874Y-100829819D01*
X41194874Y-100829819D02*
X41337731Y-100877438D01*
X41337731Y-100877438D02*
X41432969Y-100972676D01*
X41432969Y-100972676D02*
X41480588Y-101067914D01*
X41480588Y-101067914D02*
X41528207Y-101258390D01*
X41528207Y-101258390D02*
X41528207Y-101401247D01*
X41528207Y-101401247D02*
X41480588Y-101591723D01*
X41480588Y-101591723D02*
X41432969Y-101686961D01*
X41432969Y-101686961D02*
X41337731Y-101782200D01*
X41337731Y-101782200D02*
X41194874Y-101829819D01*
X41194874Y-101829819D02*
X40956779Y-101829819D01*
X41956779Y-101829819D02*
X41956779Y-101163152D01*
X41956779Y-100829819D02*
X41909160Y-100877438D01*
X41909160Y-100877438D02*
X41956779Y-100925057D01*
X41956779Y-100925057D02*
X42004398Y-100877438D01*
X42004398Y-100877438D02*
X41956779Y-100829819D01*
X41956779Y-100829819D02*
X41956779Y-100925057D01*
X42575826Y-101829819D02*
X42480588Y-101782200D01*
X42480588Y-101782200D02*
X42432969Y-101734580D01*
X42432969Y-101734580D02*
X42385350Y-101639342D01*
X42385350Y-101639342D02*
X42385350Y-101353628D01*
X42385350Y-101353628D02*
X42432969Y-101258390D01*
X42432969Y-101258390D02*
X42480588Y-101210771D01*
X42480588Y-101210771D02*
X42575826Y-101163152D01*
X42575826Y-101163152D02*
X42718683Y-101163152D01*
X42718683Y-101163152D02*
X42813921Y-101210771D01*
X42813921Y-101210771D02*
X42861540Y-101258390D01*
X42861540Y-101258390D02*
X42909159Y-101353628D01*
X42909159Y-101353628D02*
X42909159Y-101639342D01*
X42909159Y-101639342D02*
X42861540Y-101734580D01*
X42861540Y-101734580D02*
X42813921Y-101782200D01*
X42813921Y-101782200D02*
X42718683Y-101829819D01*
X42718683Y-101829819D02*
X42575826Y-101829819D01*
X43766302Y-101829819D02*
X43766302Y-100829819D01*
X43766302Y-101782200D02*
X43671064Y-101829819D01*
X43671064Y-101829819D02*
X43480588Y-101829819D01*
X43480588Y-101829819D02*
X43385350Y-101782200D01*
X43385350Y-101782200D02*
X43337731Y-101734580D01*
X43337731Y-101734580D02*
X43290112Y-101639342D01*
X43290112Y-101639342D02*
X43290112Y-101353628D01*
X43290112Y-101353628D02*
X43337731Y-101258390D01*
X43337731Y-101258390D02*
X43385350Y-101210771D01*
X43385350Y-101210771D02*
X43480588Y-101163152D01*
X43480588Y-101163152D02*
X43671064Y-101163152D01*
X43671064Y-101163152D02*
X43766302Y-101210771D01*
X44623445Y-101782200D02*
X44528207Y-101829819D01*
X44528207Y-101829819D02*
X44337731Y-101829819D01*
X44337731Y-101829819D02*
X44242493Y-101782200D01*
X44242493Y-101782200D02*
X44194874Y-101686961D01*
X44194874Y-101686961D02*
X44194874Y-101306009D01*
X44194874Y-101306009D02*
X44242493Y-101210771D01*
X44242493Y-101210771D02*
X44337731Y-101163152D01*
X44337731Y-101163152D02*
X44528207Y-101163152D01*
X44528207Y-101163152D02*
X44623445Y-101210771D01*
X44623445Y-101210771D02*
X44671064Y-101306009D01*
X44671064Y-101306009D02*
X44671064Y-101401247D01*
X44671064Y-101401247D02*
X44194874Y-101496485D01*
X42494819Y-113463220D02*
X41494819Y-113463220D01*
X41494819Y-113463220D02*
X41494819Y-113082268D01*
X41494819Y-113082268D02*
X41542438Y-112987030D01*
X41542438Y-112987030D02*
X41590057Y-112939411D01*
X41590057Y-112939411D02*
X41685295Y-112891792D01*
X41685295Y-112891792D02*
X41828152Y-112891792D01*
X41828152Y-112891792D02*
X41923390Y-112939411D01*
X41923390Y-112939411D02*
X41971009Y-112987030D01*
X41971009Y-112987030D02*
X42018628Y-113082268D01*
X42018628Y-113082268D02*
X42018628Y-113463220D01*
X42494819Y-112320363D02*
X42447200Y-112415601D01*
X42447200Y-112415601D02*
X42399580Y-112463220D01*
X42399580Y-112463220D02*
X42304342Y-112510839D01*
X42304342Y-112510839D02*
X42018628Y-112510839D01*
X42018628Y-112510839D02*
X41923390Y-112463220D01*
X41923390Y-112463220D02*
X41875771Y-112415601D01*
X41875771Y-112415601D02*
X41828152Y-112320363D01*
X41828152Y-112320363D02*
X41828152Y-112177506D01*
X41828152Y-112177506D02*
X41875771Y-112082268D01*
X41875771Y-112082268D02*
X41923390Y-112034649D01*
X41923390Y-112034649D02*
X42018628Y-111987030D01*
X42018628Y-111987030D02*
X42304342Y-111987030D01*
X42304342Y-111987030D02*
X42399580Y-112034649D01*
X42399580Y-112034649D02*
X42447200Y-112082268D01*
X42447200Y-112082268D02*
X42494819Y-112177506D01*
X42494819Y-112177506D02*
X42494819Y-112320363D01*
X42494819Y-111415601D02*
X42447200Y-111510839D01*
X42447200Y-111510839D02*
X42351961Y-111558458D01*
X42351961Y-111558458D02*
X41494819Y-111558458D01*
X42494819Y-110606077D02*
X41971009Y-110606077D01*
X41971009Y-110606077D02*
X41875771Y-110653696D01*
X41875771Y-110653696D02*
X41828152Y-110748934D01*
X41828152Y-110748934D02*
X41828152Y-110939410D01*
X41828152Y-110939410D02*
X41875771Y-111034648D01*
X42447200Y-110606077D02*
X42494819Y-110701315D01*
X42494819Y-110701315D02*
X42494819Y-110939410D01*
X42494819Y-110939410D02*
X42447200Y-111034648D01*
X42447200Y-111034648D02*
X42351961Y-111082267D01*
X42351961Y-111082267D02*
X42256723Y-111082267D01*
X42256723Y-111082267D02*
X42161485Y-111034648D01*
X42161485Y-111034648D02*
X42113866Y-110939410D01*
X42113866Y-110939410D02*
X42113866Y-110701315D01*
X42113866Y-110701315D02*
X42066247Y-110606077D01*
X42494819Y-110129886D02*
X41828152Y-110129886D01*
X42018628Y-110129886D02*
X41923390Y-110082267D01*
X41923390Y-110082267D02*
X41875771Y-110034648D01*
X41875771Y-110034648D02*
X41828152Y-109939410D01*
X41828152Y-109939410D02*
X41828152Y-109844172D01*
X42494819Y-109510838D02*
X41828152Y-109510838D01*
X41494819Y-109510838D02*
X41542438Y-109558457D01*
X41542438Y-109558457D02*
X41590057Y-109510838D01*
X41590057Y-109510838D02*
X41542438Y-109463219D01*
X41542438Y-109463219D02*
X41494819Y-109510838D01*
X41494819Y-109510838D02*
X41590057Y-109510838D01*
X41828152Y-109129886D02*
X41828152Y-108606077D01*
X41828152Y-108606077D02*
X42494819Y-109129886D01*
X42494819Y-109129886D02*
X42494819Y-108606077D01*
X42447200Y-107844172D02*
X42494819Y-107939410D01*
X42494819Y-107939410D02*
X42494819Y-108129886D01*
X42494819Y-108129886D02*
X42447200Y-108225124D01*
X42447200Y-108225124D02*
X42351961Y-108272743D01*
X42351961Y-108272743D02*
X41971009Y-108272743D01*
X41971009Y-108272743D02*
X41875771Y-108225124D01*
X41875771Y-108225124D02*
X41828152Y-108129886D01*
X41828152Y-108129886D02*
X41828152Y-107939410D01*
X41828152Y-107939410D02*
X41875771Y-107844172D01*
X41875771Y-107844172D02*
X41971009Y-107796553D01*
X41971009Y-107796553D02*
X42066247Y-107796553D01*
X42066247Y-107796553D02*
X42161485Y-108272743D01*
X42494819Y-106939410D02*
X41494819Y-106939410D01*
X42447200Y-106939410D02*
X42494819Y-107034648D01*
X42494819Y-107034648D02*
X42494819Y-107225124D01*
X42494819Y-107225124D02*
X42447200Y-107320362D01*
X42447200Y-107320362D02*
X42399580Y-107367981D01*
X42399580Y-107367981D02*
X42304342Y-107415600D01*
X42304342Y-107415600D02*
X42018628Y-107415600D01*
X42018628Y-107415600D02*
X41923390Y-107367981D01*
X41923390Y-107367981D02*
X41875771Y-107320362D01*
X41875771Y-107320362D02*
X41828152Y-107225124D01*
X41828152Y-107225124D02*
X41828152Y-107034648D01*
X41828152Y-107034648D02*
X41875771Y-106939410D01*
X42399580Y-105129886D02*
X42447200Y-105177505D01*
X42447200Y-105177505D02*
X42494819Y-105320362D01*
X42494819Y-105320362D02*
X42494819Y-105415600D01*
X42494819Y-105415600D02*
X42447200Y-105558457D01*
X42447200Y-105558457D02*
X42351961Y-105653695D01*
X42351961Y-105653695D02*
X42256723Y-105701314D01*
X42256723Y-105701314D02*
X42066247Y-105748933D01*
X42066247Y-105748933D02*
X41923390Y-105748933D01*
X41923390Y-105748933D02*
X41732914Y-105701314D01*
X41732914Y-105701314D02*
X41637676Y-105653695D01*
X41637676Y-105653695D02*
X41542438Y-105558457D01*
X41542438Y-105558457D02*
X41494819Y-105415600D01*
X41494819Y-105415600D02*
X41494819Y-105320362D01*
X41494819Y-105320362D02*
X41542438Y-105177505D01*
X41542438Y-105177505D02*
X41590057Y-105129886D01*
X63019819Y-135523220D02*
X62019819Y-135523220D01*
X62019819Y-135523220D02*
X62019819Y-135142268D01*
X62019819Y-135142268D02*
X62067438Y-135047030D01*
X62067438Y-135047030D02*
X62115057Y-134999411D01*
X62115057Y-134999411D02*
X62210295Y-134951792D01*
X62210295Y-134951792D02*
X62353152Y-134951792D01*
X62353152Y-134951792D02*
X62448390Y-134999411D01*
X62448390Y-134999411D02*
X62496009Y-135047030D01*
X62496009Y-135047030D02*
X62543628Y-135142268D01*
X62543628Y-135142268D02*
X62543628Y-135523220D01*
X63019819Y-134380363D02*
X62972200Y-134475601D01*
X62972200Y-134475601D02*
X62924580Y-134523220D01*
X62924580Y-134523220D02*
X62829342Y-134570839D01*
X62829342Y-134570839D02*
X62543628Y-134570839D01*
X62543628Y-134570839D02*
X62448390Y-134523220D01*
X62448390Y-134523220D02*
X62400771Y-134475601D01*
X62400771Y-134475601D02*
X62353152Y-134380363D01*
X62353152Y-134380363D02*
X62353152Y-134237506D01*
X62353152Y-134237506D02*
X62400771Y-134142268D01*
X62400771Y-134142268D02*
X62448390Y-134094649D01*
X62448390Y-134094649D02*
X62543628Y-134047030D01*
X62543628Y-134047030D02*
X62829342Y-134047030D01*
X62829342Y-134047030D02*
X62924580Y-134094649D01*
X62924580Y-134094649D02*
X62972200Y-134142268D01*
X62972200Y-134142268D02*
X63019819Y-134237506D01*
X63019819Y-134237506D02*
X63019819Y-134380363D01*
X63019819Y-133618458D02*
X62353152Y-133618458D01*
X62543628Y-133618458D02*
X62448390Y-133570839D01*
X62448390Y-133570839D02*
X62400771Y-133523220D01*
X62400771Y-133523220D02*
X62353152Y-133427982D01*
X62353152Y-133427982D02*
X62353152Y-133332744D01*
X62353152Y-133142267D02*
X62353152Y-132761315D01*
X62019819Y-132999410D02*
X62876961Y-132999410D01*
X62876961Y-132999410D02*
X62972200Y-132951791D01*
X62972200Y-132951791D02*
X63019819Y-132856553D01*
X63019819Y-132856553D02*
X63019819Y-132761315D01*
X63019819Y-131142267D02*
X63019819Y-131713695D01*
X63019819Y-131427981D02*
X62019819Y-131427981D01*
X62019819Y-131427981D02*
X62162676Y-131523219D01*
X62162676Y-131523219D02*
X62257914Y-131618457D01*
X62257914Y-131618457D02*
X62305533Y-131713695D01*
X52261779Y-131469819D02*
X52261779Y-130469819D01*
X52261779Y-130469819D02*
X52833207Y-131469819D01*
X52833207Y-131469819D02*
X52833207Y-130469819D01*
X53309398Y-131469819D02*
X53309398Y-130469819D01*
X53309398Y-130469819D02*
X53690350Y-130469819D01*
X53690350Y-130469819D02*
X53785588Y-130517438D01*
X53785588Y-130517438D02*
X53833207Y-130565057D01*
X53833207Y-130565057D02*
X53880826Y-130660295D01*
X53880826Y-130660295D02*
X53880826Y-130803152D01*
X53880826Y-130803152D02*
X53833207Y-130898390D01*
X53833207Y-130898390D02*
X53785588Y-130946009D01*
X53785588Y-130946009D02*
X53690350Y-130993628D01*
X53690350Y-130993628D02*
X53309398Y-130993628D01*
X54309398Y-131469819D02*
X54309398Y-130469819D01*
X54309398Y-130469819D02*
X54880826Y-131469819D01*
X54880826Y-131469819D02*
X54880826Y-130469819D01*
D11*
X104848784Y-96209188D02*
X104776212Y-96136616D01*
X104776212Y-96136616D02*
X104703641Y-95991474D01*
X104703641Y-95991474D02*
X104703641Y-95628616D01*
X104703641Y-95628616D02*
X104776212Y-95483474D01*
X104776212Y-95483474D02*
X104848784Y-95410902D01*
X104848784Y-95410902D02*
X104993927Y-95338331D01*
X104993927Y-95338331D02*
X105139070Y-95338331D01*
X105139070Y-95338331D02*
X105356784Y-95410902D01*
X105356784Y-95410902D02*
X106227641Y-96281759D01*
X106227641Y-96281759D02*
X106227641Y-95338331D01*
D10*
X81189160Y-100165057D02*
X81236779Y-100117438D01*
X81236779Y-100117438D02*
X81332017Y-100069819D01*
X81332017Y-100069819D02*
X81570112Y-100069819D01*
X81570112Y-100069819D02*
X81665350Y-100117438D01*
X81665350Y-100117438D02*
X81712969Y-100165057D01*
X81712969Y-100165057D02*
X81760588Y-100260295D01*
X81760588Y-100260295D02*
X81760588Y-100355533D01*
X81760588Y-100355533D02*
X81712969Y-100498390D01*
X81712969Y-100498390D02*
X81141541Y-101069819D01*
X81141541Y-101069819D02*
X81760588Y-101069819D01*
X82189160Y-100974580D02*
X82236779Y-101022200D01*
X82236779Y-101022200D02*
X82189160Y-101069819D01*
X82189160Y-101069819D02*
X82141541Y-101022200D01*
X82141541Y-101022200D02*
X82189160Y-100974580D01*
X82189160Y-100974580D02*
X82189160Y-101069819D01*
X82617731Y-100165057D02*
X82665350Y-100117438D01*
X82665350Y-100117438D02*
X82760588Y-100069819D01*
X82760588Y-100069819D02*
X82998683Y-100069819D01*
X82998683Y-100069819D02*
X83093921Y-100117438D01*
X83093921Y-100117438D02*
X83141540Y-100165057D01*
X83141540Y-100165057D02*
X83189159Y-100260295D01*
X83189159Y-100260295D02*
X83189159Y-100355533D01*
X83189159Y-100355533D02*
X83141540Y-100498390D01*
X83141540Y-100498390D02*
X82570112Y-101069819D01*
X82570112Y-101069819D02*
X83189159Y-101069819D01*
X83617731Y-101069819D02*
X83617731Y-100069819D01*
X84189159Y-101069819D02*
X83760588Y-100498390D01*
X84189159Y-100069819D02*
X83617731Y-100641247D01*
X84570112Y-101069819D02*
X84808207Y-101069819D01*
X84808207Y-101069819D02*
X84808207Y-100879342D01*
X84808207Y-100879342D02*
X84712969Y-100831723D01*
X84712969Y-100831723D02*
X84617731Y-100736485D01*
X84617731Y-100736485D02*
X84570112Y-100593628D01*
X84570112Y-100593628D02*
X84570112Y-100355533D01*
X84570112Y-100355533D02*
X84617731Y-100212676D01*
X84617731Y-100212676D02*
X84712969Y-100117438D01*
X84712969Y-100117438D02*
X84855826Y-100069819D01*
X84855826Y-100069819D02*
X85046302Y-100069819D01*
X85046302Y-100069819D02*
X85189159Y-100117438D01*
X85189159Y-100117438D02*
X85284397Y-100212676D01*
X85284397Y-100212676D02*
X85332016Y-100355533D01*
X85332016Y-100355533D02*
X85332016Y-100593628D01*
X85332016Y-100593628D02*
X85284397Y-100736485D01*
X85284397Y-100736485D02*
X85189159Y-100831723D01*
X85189159Y-100831723D02*
X85093921Y-100879342D01*
X85093921Y-100879342D02*
X85093921Y-101069819D01*
X85093921Y-101069819D02*
X85332016Y-101069819D01*
X92810588Y-97219819D02*
X92239160Y-97219819D01*
X92524874Y-97219819D02*
X92524874Y-96219819D01*
X92524874Y-96219819D02*
X92429636Y-96362676D01*
X92429636Y-96362676D02*
X92334398Y-96457914D01*
X92334398Y-96457914D02*
X92239160Y-96505533D01*
X93239160Y-97219819D02*
X93239160Y-96219819D01*
X93810588Y-97219819D02*
X93382017Y-96648390D01*
X93810588Y-96219819D02*
X93239160Y-96791247D01*
X94191541Y-97219819D02*
X94429636Y-97219819D01*
X94429636Y-97219819D02*
X94429636Y-97029342D01*
X94429636Y-97029342D02*
X94334398Y-96981723D01*
X94334398Y-96981723D02*
X94239160Y-96886485D01*
X94239160Y-96886485D02*
X94191541Y-96743628D01*
X94191541Y-96743628D02*
X94191541Y-96505533D01*
X94191541Y-96505533D02*
X94239160Y-96362676D01*
X94239160Y-96362676D02*
X94334398Y-96267438D01*
X94334398Y-96267438D02*
X94477255Y-96219819D01*
X94477255Y-96219819D02*
X94667731Y-96219819D01*
X94667731Y-96219819D02*
X94810588Y-96267438D01*
X94810588Y-96267438D02*
X94905826Y-96362676D01*
X94905826Y-96362676D02*
X94953445Y-96505533D01*
X94953445Y-96505533D02*
X94953445Y-96743628D01*
X94953445Y-96743628D02*
X94905826Y-96886485D01*
X94905826Y-96886485D02*
X94810588Y-96981723D01*
X94810588Y-96981723D02*
X94715350Y-97029342D01*
X94715350Y-97029342D02*
X94715350Y-97219819D01*
X94715350Y-97219819D02*
X94953445Y-97219819D01*
X52280588Y-119829819D02*
X51709160Y-119829819D01*
X51994874Y-119829819D02*
X51994874Y-118829819D01*
X51994874Y-118829819D02*
X51899636Y-118972676D01*
X51899636Y-118972676D02*
X51804398Y-119067914D01*
X51804398Y-119067914D02*
X51709160Y-119115533D01*
X52899636Y-118829819D02*
X52994874Y-118829819D01*
X52994874Y-118829819D02*
X53090112Y-118877438D01*
X53090112Y-118877438D02*
X53137731Y-118925057D01*
X53137731Y-118925057D02*
X53185350Y-119020295D01*
X53185350Y-119020295D02*
X53232969Y-119210771D01*
X53232969Y-119210771D02*
X53232969Y-119448866D01*
X53232969Y-119448866D02*
X53185350Y-119639342D01*
X53185350Y-119639342D02*
X53137731Y-119734580D01*
X53137731Y-119734580D02*
X53090112Y-119782200D01*
X53090112Y-119782200D02*
X52994874Y-119829819D01*
X52994874Y-119829819D02*
X52899636Y-119829819D01*
X52899636Y-119829819D02*
X52804398Y-119782200D01*
X52804398Y-119782200D02*
X52756779Y-119734580D01*
X52756779Y-119734580D02*
X52709160Y-119639342D01*
X52709160Y-119639342D02*
X52661541Y-119448866D01*
X52661541Y-119448866D02*
X52661541Y-119210771D01*
X52661541Y-119210771D02*
X52709160Y-119020295D01*
X52709160Y-119020295D02*
X52756779Y-118925057D01*
X52756779Y-118925057D02*
X52804398Y-118877438D01*
X52804398Y-118877438D02*
X52899636Y-118829819D01*
X53852017Y-118829819D02*
X53947255Y-118829819D01*
X53947255Y-118829819D02*
X54042493Y-118877438D01*
X54042493Y-118877438D02*
X54090112Y-118925057D01*
X54090112Y-118925057D02*
X54137731Y-119020295D01*
X54137731Y-119020295D02*
X54185350Y-119210771D01*
X54185350Y-119210771D02*
X54185350Y-119448866D01*
X54185350Y-119448866D02*
X54137731Y-119639342D01*
X54137731Y-119639342D02*
X54090112Y-119734580D01*
X54090112Y-119734580D02*
X54042493Y-119782200D01*
X54042493Y-119782200D02*
X53947255Y-119829819D01*
X53947255Y-119829819D02*
X53852017Y-119829819D01*
X53852017Y-119829819D02*
X53756779Y-119782200D01*
X53756779Y-119782200D02*
X53709160Y-119734580D01*
X53709160Y-119734580D02*
X53661541Y-119639342D01*
X53661541Y-119639342D02*
X53613922Y-119448866D01*
X53613922Y-119448866D02*
X53613922Y-119210771D01*
X53613922Y-119210771D02*
X53661541Y-119020295D01*
X53661541Y-119020295D02*
X53709160Y-118925057D01*
X53709160Y-118925057D02*
X53756779Y-118877438D01*
X53756779Y-118877438D02*
X53852017Y-118829819D01*
X54566303Y-119829819D02*
X54804398Y-119829819D01*
X54804398Y-119829819D02*
X54804398Y-119639342D01*
X54804398Y-119639342D02*
X54709160Y-119591723D01*
X54709160Y-119591723D02*
X54613922Y-119496485D01*
X54613922Y-119496485D02*
X54566303Y-119353628D01*
X54566303Y-119353628D02*
X54566303Y-119115533D01*
X54566303Y-119115533D02*
X54613922Y-118972676D01*
X54613922Y-118972676D02*
X54709160Y-118877438D01*
X54709160Y-118877438D02*
X54852017Y-118829819D01*
X54852017Y-118829819D02*
X55042493Y-118829819D01*
X55042493Y-118829819D02*
X55185350Y-118877438D01*
X55185350Y-118877438D02*
X55280588Y-118972676D01*
X55280588Y-118972676D02*
X55328207Y-119115533D01*
X55328207Y-119115533D02*
X55328207Y-119353628D01*
X55328207Y-119353628D02*
X55280588Y-119496485D01*
X55280588Y-119496485D02*
X55185350Y-119591723D01*
X55185350Y-119591723D02*
X55090112Y-119639342D01*
X55090112Y-119639342D02*
X55090112Y-119829819D01*
X55090112Y-119829819D02*
X55328207Y-119829819D01*
X90644819Y-115814411D02*
X90644819Y-116385839D01*
X90644819Y-116100125D02*
X89644819Y-116100125D01*
X89644819Y-116100125D02*
X89787676Y-116195363D01*
X89787676Y-116195363D02*
X89882914Y-116290601D01*
X89882914Y-116290601D02*
X89930533Y-116385839D01*
X89644819Y-115195363D02*
X89644819Y-115100125D01*
X89644819Y-115100125D02*
X89692438Y-115004887D01*
X89692438Y-115004887D02*
X89740057Y-114957268D01*
X89740057Y-114957268D02*
X89835295Y-114909649D01*
X89835295Y-114909649D02*
X90025771Y-114862030D01*
X90025771Y-114862030D02*
X90263866Y-114862030D01*
X90263866Y-114862030D02*
X90454342Y-114909649D01*
X90454342Y-114909649D02*
X90549580Y-114957268D01*
X90549580Y-114957268D02*
X90597200Y-115004887D01*
X90597200Y-115004887D02*
X90644819Y-115100125D01*
X90644819Y-115100125D02*
X90644819Y-115195363D01*
X90644819Y-115195363D02*
X90597200Y-115290601D01*
X90597200Y-115290601D02*
X90549580Y-115338220D01*
X90549580Y-115338220D02*
X90454342Y-115385839D01*
X90454342Y-115385839D02*
X90263866Y-115433458D01*
X90263866Y-115433458D02*
X90025771Y-115433458D01*
X90025771Y-115433458D02*
X89835295Y-115385839D01*
X89835295Y-115385839D02*
X89740057Y-115338220D01*
X89740057Y-115338220D02*
X89692438Y-115290601D01*
X89692438Y-115290601D02*
X89644819Y-115195363D01*
X90644819Y-114433458D02*
X89644819Y-114433458D01*
X90644819Y-113862030D02*
X90073390Y-114290601D01*
X89644819Y-113862030D02*
X90216247Y-114433458D01*
X90644819Y-113481077D02*
X90644819Y-113242982D01*
X90644819Y-113242982D02*
X90454342Y-113242982D01*
X90454342Y-113242982D02*
X90406723Y-113338220D01*
X90406723Y-113338220D02*
X90311485Y-113433458D01*
X90311485Y-113433458D02*
X90168628Y-113481077D01*
X90168628Y-113481077D02*
X89930533Y-113481077D01*
X89930533Y-113481077D02*
X89787676Y-113433458D01*
X89787676Y-113433458D02*
X89692438Y-113338220D01*
X89692438Y-113338220D02*
X89644819Y-113195363D01*
X89644819Y-113195363D02*
X89644819Y-113004887D01*
X89644819Y-113004887D02*
X89692438Y-112862030D01*
X89692438Y-112862030D02*
X89787676Y-112766792D01*
X89787676Y-112766792D02*
X89930533Y-112719173D01*
X89930533Y-112719173D02*
X90168628Y-112719173D01*
X90168628Y-112719173D02*
X90311485Y-112766792D01*
X90311485Y-112766792D02*
X90406723Y-112862030D01*
X90406723Y-112862030D02*
X90454342Y-112957268D01*
X90454342Y-112957268D02*
X90644819Y-112957268D01*
X90644819Y-112957268D02*
X90644819Y-112719173D01*
D11*
X106057641Y-92578331D02*
X106057641Y-93449188D01*
X106057641Y-93013759D02*
X104533641Y-93013759D01*
X104533641Y-93013759D02*
X104751355Y-93158902D01*
X104751355Y-93158902D02*
X104896498Y-93304045D01*
X104896498Y-93304045D02*
X104969070Y-93449188D01*
X105872498Y-99885759D02*
X105945070Y-99958331D01*
X105945070Y-99958331D02*
X106017641Y-100176045D01*
X106017641Y-100176045D02*
X106017641Y-100321188D01*
X106017641Y-100321188D02*
X105945070Y-100538902D01*
X105945070Y-100538902D02*
X105799927Y-100684045D01*
X105799927Y-100684045D02*
X105654784Y-100756616D01*
X105654784Y-100756616D02*
X105364498Y-100829188D01*
X105364498Y-100829188D02*
X105146784Y-100829188D01*
X105146784Y-100829188D02*
X104856498Y-100756616D01*
X104856498Y-100756616D02*
X104711355Y-100684045D01*
X104711355Y-100684045D02*
X104566212Y-100538902D01*
X104566212Y-100538902D02*
X104493641Y-100321188D01*
X104493641Y-100321188D02*
X104493641Y-100176045D01*
X104493641Y-100176045D02*
X104566212Y-99958331D01*
X104566212Y-99958331D02*
X104638784Y-99885759D01*
D10*
X81189160Y-96165057D02*
X81236779Y-96117438D01*
X81236779Y-96117438D02*
X81332017Y-96069819D01*
X81332017Y-96069819D02*
X81570112Y-96069819D01*
X81570112Y-96069819D02*
X81665350Y-96117438D01*
X81665350Y-96117438D02*
X81712969Y-96165057D01*
X81712969Y-96165057D02*
X81760588Y-96260295D01*
X81760588Y-96260295D02*
X81760588Y-96355533D01*
X81760588Y-96355533D02*
X81712969Y-96498390D01*
X81712969Y-96498390D02*
X81141541Y-97069819D01*
X81141541Y-97069819D02*
X81760588Y-97069819D01*
X82189160Y-96974580D02*
X82236779Y-97022200D01*
X82236779Y-97022200D02*
X82189160Y-97069819D01*
X82189160Y-97069819D02*
X82141541Y-97022200D01*
X82141541Y-97022200D02*
X82189160Y-96974580D01*
X82189160Y-96974580D02*
X82189160Y-97069819D01*
X82617731Y-96165057D02*
X82665350Y-96117438D01*
X82665350Y-96117438D02*
X82760588Y-96069819D01*
X82760588Y-96069819D02*
X82998683Y-96069819D01*
X82998683Y-96069819D02*
X83093921Y-96117438D01*
X83093921Y-96117438D02*
X83141540Y-96165057D01*
X83141540Y-96165057D02*
X83189159Y-96260295D01*
X83189159Y-96260295D02*
X83189159Y-96355533D01*
X83189159Y-96355533D02*
X83141540Y-96498390D01*
X83141540Y-96498390D02*
X82570112Y-97069819D01*
X82570112Y-97069819D02*
X83189159Y-97069819D01*
X83617731Y-97069819D02*
X83617731Y-96069819D01*
X84189159Y-97069819D02*
X83760588Y-96498390D01*
X84189159Y-96069819D02*
X83617731Y-96641247D01*
X84570112Y-97069819D02*
X84808207Y-97069819D01*
X84808207Y-97069819D02*
X84808207Y-96879342D01*
X84808207Y-96879342D02*
X84712969Y-96831723D01*
X84712969Y-96831723D02*
X84617731Y-96736485D01*
X84617731Y-96736485D02*
X84570112Y-96593628D01*
X84570112Y-96593628D02*
X84570112Y-96355533D01*
X84570112Y-96355533D02*
X84617731Y-96212676D01*
X84617731Y-96212676D02*
X84712969Y-96117438D01*
X84712969Y-96117438D02*
X84855826Y-96069819D01*
X84855826Y-96069819D02*
X85046302Y-96069819D01*
X85046302Y-96069819D02*
X85189159Y-96117438D01*
X85189159Y-96117438D02*
X85284397Y-96212676D01*
X85284397Y-96212676D02*
X85332016Y-96355533D01*
X85332016Y-96355533D02*
X85332016Y-96593628D01*
X85332016Y-96593628D02*
X85284397Y-96736485D01*
X85284397Y-96736485D02*
X85189159Y-96831723D01*
X85189159Y-96831723D02*
X85093921Y-96879342D01*
X85093921Y-96879342D02*
X85093921Y-97069819D01*
X85093921Y-97069819D02*
X85332016Y-97069819D01*
X92700588Y-93259819D02*
X92129160Y-93259819D01*
X92414874Y-93259819D02*
X92414874Y-92259819D01*
X92414874Y-92259819D02*
X92319636Y-92402676D01*
X92319636Y-92402676D02*
X92224398Y-92497914D01*
X92224398Y-92497914D02*
X92129160Y-92545533D01*
X93129160Y-93259819D02*
X93129160Y-92259819D01*
X93700588Y-93259819D02*
X93272017Y-92688390D01*
X93700588Y-92259819D02*
X93129160Y-92831247D01*
X94081541Y-93259819D02*
X94319636Y-93259819D01*
X94319636Y-93259819D02*
X94319636Y-93069342D01*
X94319636Y-93069342D02*
X94224398Y-93021723D01*
X94224398Y-93021723D02*
X94129160Y-92926485D01*
X94129160Y-92926485D02*
X94081541Y-92783628D01*
X94081541Y-92783628D02*
X94081541Y-92545533D01*
X94081541Y-92545533D02*
X94129160Y-92402676D01*
X94129160Y-92402676D02*
X94224398Y-92307438D01*
X94224398Y-92307438D02*
X94367255Y-92259819D01*
X94367255Y-92259819D02*
X94557731Y-92259819D01*
X94557731Y-92259819D02*
X94700588Y-92307438D01*
X94700588Y-92307438D02*
X94795826Y-92402676D01*
X94795826Y-92402676D02*
X94843445Y-92545533D01*
X94843445Y-92545533D02*
X94843445Y-92783628D01*
X94843445Y-92783628D02*
X94795826Y-92926485D01*
X94795826Y-92926485D02*
X94700588Y-93021723D01*
X94700588Y-93021723D02*
X94605350Y-93069342D01*
X94605350Y-93069342D02*
X94605350Y-93259819D01*
X94605350Y-93259819D02*
X94843445Y-93259819D01*
X52025588Y-97349819D02*
X51454160Y-97349819D01*
X51739874Y-97349819D02*
X51739874Y-96349819D01*
X51739874Y-96349819D02*
X51644636Y-96492676D01*
X51644636Y-96492676D02*
X51549398Y-96587914D01*
X51549398Y-96587914D02*
X51454160Y-96635533D01*
X52644636Y-96349819D02*
X52739874Y-96349819D01*
X52739874Y-96349819D02*
X52835112Y-96397438D01*
X52835112Y-96397438D02*
X52882731Y-96445057D01*
X52882731Y-96445057D02*
X52930350Y-96540295D01*
X52930350Y-96540295D02*
X52977969Y-96730771D01*
X52977969Y-96730771D02*
X52977969Y-96968866D01*
X52977969Y-96968866D02*
X52930350Y-97159342D01*
X52930350Y-97159342D02*
X52882731Y-97254580D01*
X52882731Y-97254580D02*
X52835112Y-97302200D01*
X52835112Y-97302200D02*
X52739874Y-97349819D01*
X52739874Y-97349819D02*
X52644636Y-97349819D01*
X52644636Y-97349819D02*
X52549398Y-97302200D01*
X52549398Y-97302200D02*
X52501779Y-97254580D01*
X52501779Y-97254580D02*
X52454160Y-97159342D01*
X52454160Y-97159342D02*
X52406541Y-96968866D01*
X52406541Y-96968866D02*
X52406541Y-96730771D01*
X52406541Y-96730771D02*
X52454160Y-96540295D01*
X52454160Y-96540295D02*
X52501779Y-96445057D01*
X52501779Y-96445057D02*
X52549398Y-96397438D01*
X52549398Y-96397438D02*
X52644636Y-96349819D01*
X53597017Y-96349819D02*
X53692255Y-96349819D01*
X53692255Y-96349819D02*
X53787493Y-96397438D01*
X53787493Y-96397438D02*
X53835112Y-96445057D01*
X53835112Y-96445057D02*
X53882731Y-96540295D01*
X53882731Y-96540295D02*
X53930350Y-96730771D01*
X53930350Y-96730771D02*
X53930350Y-96968866D01*
X53930350Y-96968866D02*
X53882731Y-97159342D01*
X53882731Y-97159342D02*
X53835112Y-97254580D01*
X53835112Y-97254580D02*
X53787493Y-97302200D01*
X53787493Y-97302200D02*
X53692255Y-97349819D01*
X53692255Y-97349819D02*
X53597017Y-97349819D01*
X53597017Y-97349819D02*
X53501779Y-97302200D01*
X53501779Y-97302200D02*
X53454160Y-97254580D01*
X53454160Y-97254580D02*
X53406541Y-97159342D01*
X53406541Y-97159342D02*
X53358922Y-96968866D01*
X53358922Y-96968866D02*
X53358922Y-96730771D01*
X53358922Y-96730771D02*
X53406541Y-96540295D01*
X53406541Y-96540295D02*
X53454160Y-96445057D01*
X53454160Y-96445057D02*
X53501779Y-96397438D01*
X53501779Y-96397438D02*
X53597017Y-96349819D01*
X54311303Y-97349819D02*
X54549398Y-97349819D01*
X54549398Y-97349819D02*
X54549398Y-97159342D01*
X54549398Y-97159342D02*
X54454160Y-97111723D01*
X54454160Y-97111723D02*
X54358922Y-97016485D01*
X54358922Y-97016485D02*
X54311303Y-96873628D01*
X54311303Y-96873628D02*
X54311303Y-96635533D01*
X54311303Y-96635533D02*
X54358922Y-96492676D01*
X54358922Y-96492676D02*
X54454160Y-96397438D01*
X54454160Y-96397438D02*
X54597017Y-96349819D01*
X54597017Y-96349819D02*
X54787493Y-96349819D01*
X54787493Y-96349819D02*
X54930350Y-96397438D01*
X54930350Y-96397438D02*
X55025588Y-96492676D01*
X55025588Y-96492676D02*
X55073207Y-96635533D01*
X55073207Y-96635533D02*
X55073207Y-96873628D01*
X55073207Y-96873628D02*
X55025588Y-97016485D01*
X55025588Y-97016485D02*
X54930350Y-97111723D01*
X54930350Y-97111723D02*
X54835112Y-97159342D01*
X54835112Y-97159342D02*
X54835112Y-97349819D01*
X54835112Y-97349819D02*
X55073207Y-97349819D01*
X81019160Y-92325057D02*
X81066779Y-92277438D01*
X81066779Y-92277438D02*
X81162017Y-92229819D01*
X81162017Y-92229819D02*
X81400112Y-92229819D01*
X81400112Y-92229819D02*
X81495350Y-92277438D01*
X81495350Y-92277438D02*
X81542969Y-92325057D01*
X81542969Y-92325057D02*
X81590588Y-92420295D01*
X81590588Y-92420295D02*
X81590588Y-92515533D01*
X81590588Y-92515533D02*
X81542969Y-92658390D01*
X81542969Y-92658390D02*
X80971541Y-93229819D01*
X80971541Y-93229819D02*
X81590588Y-93229819D01*
X82019160Y-93134580D02*
X82066779Y-93182200D01*
X82066779Y-93182200D02*
X82019160Y-93229819D01*
X82019160Y-93229819D02*
X81971541Y-93182200D01*
X81971541Y-93182200D02*
X82019160Y-93134580D01*
X82019160Y-93134580D02*
X82019160Y-93229819D01*
X82447731Y-92325057D02*
X82495350Y-92277438D01*
X82495350Y-92277438D02*
X82590588Y-92229819D01*
X82590588Y-92229819D02*
X82828683Y-92229819D01*
X82828683Y-92229819D02*
X82923921Y-92277438D01*
X82923921Y-92277438D02*
X82971540Y-92325057D01*
X82971540Y-92325057D02*
X83019159Y-92420295D01*
X83019159Y-92420295D02*
X83019159Y-92515533D01*
X83019159Y-92515533D02*
X82971540Y-92658390D01*
X82971540Y-92658390D02*
X82400112Y-93229819D01*
X82400112Y-93229819D02*
X83019159Y-93229819D01*
X83447731Y-93229819D02*
X83447731Y-92229819D01*
X84019159Y-93229819D02*
X83590588Y-92658390D01*
X84019159Y-92229819D02*
X83447731Y-92801247D01*
X84400112Y-93229819D02*
X84638207Y-93229819D01*
X84638207Y-93229819D02*
X84638207Y-93039342D01*
X84638207Y-93039342D02*
X84542969Y-92991723D01*
X84542969Y-92991723D02*
X84447731Y-92896485D01*
X84447731Y-92896485D02*
X84400112Y-92753628D01*
X84400112Y-92753628D02*
X84400112Y-92515533D01*
X84400112Y-92515533D02*
X84447731Y-92372676D01*
X84447731Y-92372676D02*
X84542969Y-92277438D01*
X84542969Y-92277438D02*
X84685826Y-92229819D01*
X84685826Y-92229819D02*
X84876302Y-92229819D01*
X84876302Y-92229819D02*
X85019159Y-92277438D01*
X85019159Y-92277438D02*
X85114397Y-92372676D01*
X85114397Y-92372676D02*
X85162016Y-92515533D01*
X85162016Y-92515533D02*
X85162016Y-92753628D01*
X85162016Y-92753628D02*
X85114397Y-92896485D01*
X85114397Y-92896485D02*
X85019159Y-92991723D01*
X85019159Y-92991723D02*
X84923921Y-93039342D01*
X84923921Y-93039342D02*
X84923921Y-93229819D01*
X84923921Y-93229819D02*
X85162016Y-93229819D01*
X74044819Y-135588220D02*
X73044819Y-135588220D01*
X73044819Y-135588220D02*
X73044819Y-135207268D01*
X73044819Y-135207268D02*
X73092438Y-135112030D01*
X73092438Y-135112030D02*
X73140057Y-135064411D01*
X73140057Y-135064411D02*
X73235295Y-135016792D01*
X73235295Y-135016792D02*
X73378152Y-135016792D01*
X73378152Y-135016792D02*
X73473390Y-135064411D01*
X73473390Y-135064411D02*
X73521009Y-135112030D01*
X73521009Y-135112030D02*
X73568628Y-135207268D01*
X73568628Y-135207268D02*
X73568628Y-135588220D01*
X74044819Y-134445363D02*
X73997200Y-134540601D01*
X73997200Y-134540601D02*
X73949580Y-134588220D01*
X73949580Y-134588220D02*
X73854342Y-134635839D01*
X73854342Y-134635839D02*
X73568628Y-134635839D01*
X73568628Y-134635839D02*
X73473390Y-134588220D01*
X73473390Y-134588220D02*
X73425771Y-134540601D01*
X73425771Y-134540601D02*
X73378152Y-134445363D01*
X73378152Y-134445363D02*
X73378152Y-134302506D01*
X73378152Y-134302506D02*
X73425771Y-134207268D01*
X73425771Y-134207268D02*
X73473390Y-134159649D01*
X73473390Y-134159649D02*
X73568628Y-134112030D01*
X73568628Y-134112030D02*
X73854342Y-134112030D01*
X73854342Y-134112030D02*
X73949580Y-134159649D01*
X73949580Y-134159649D02*
X73997200Y-134207268D01*
X73997200Y-134207268D02*
X74044819Y-134302506D01*
X74044819Y-134302506D02*
X74044819Y-134445363D01*
X74044819Y-133683458D02*
X73378152Y-133683458D01*
X73568628Y-133683458D02*
X73473390Y-133635839D01*
X73473390Y-133635839D02*
X73425771Y-133588220D01*
X73425771Y-133588220D02*
X73378152Y-133492982D01*
X73378152Y-133492982D02*
X73378152Y-133397744D01*
X73378152Y-133207267D02*
X73378152Y-132826315D01*
X73044819Y-133064410D02*
X73901961Y-133064410D01*
X73901961Y-133064410D02*
X73997200Y-133016791D01*
X73997200Y-133016791D02*
X74044819Y-132921553D01*
X74044819Y-132921553D02*
X74044819Y-132826315D01*
X73140057Y-131778695D02*
X73092438Y-131731076D01*
X73092438Y-131731076D02*
X73044819Y-131635838D01*
X73044819Y-131635838D02*
X73044819Y-131397743D01*
X73044819Y-131397743D02*
X73092438Y-131302505D01*
X73092438Y-131302505D02*
X73140057Y-131254886D01*
X73140057Y-131254886D02*
X73235295Y-131207267D01*
X73235295Y-131207267D02*
X73330533Y-131207267D01*
X73330533Y-131207267D02*
X73473390Y-131254886D01*
X73473390Y-131254886D02*
X74044819Y-131826314D01*
X74044819Y-131826314D02*
X74044819Y-131207267D01*
X41071779Y-128179819D02*
X41071779Y-127179819D01*
X41071779Y-127179819D02*
X41309874Y-127179819D01*
X41309874Y-127179819D02*
X41452731Y-127227438D01*
X41452731Y-127227438D02*
X41547969Y-127322676D01*
X41547969Y-127322676D02*
X41595588Y-127417914D01*
X41595588Y-127417914D02*
X41643207Y-127608390D01*
X41643207Y-127608390D02*
X41643207Y-127751247D01*
X41643207Y-127751247D02*
X41595588Y-127941723D01*
X41595588Y-127941723D02*
X41547969Y-128036961D01*
X41547969Y-128036961D02*
X41452731Y-128132200D01*
X41452731Y-128132200D02*
X41309874Y-128179819D01*
X41309874Y-128179819D02*
X41071779Y-128179819D01*
X42071779Y-128179819D02*
X42071779Y-127513152D01*
X42071779Y-127179819D02*
X42024160Y-127227438D01*
X42024160Y-127227438D02*
X42071779Y-127275057D01*
X42071779Y-127275057D02*
X42119398Y-127227438D01*
X42119398Y-127227438D02*
X42071779Y-127179819D01*
X42071779Y-127179819D02*
X42071779Y-127275057D01*
X42690826Y-128179819D02*
X42595588Y-128132200D01*
X42595588Y-128132200D02*
X42547969Y-128084580D01*
X42547969Y-128084580D02*
X42500350Y-127989342D01*
X42500350Y-127989342D02*
X42500350Y-127703628D01*
X42500350Y-127703628D02*
X42547969Y-127608390D01*
X42547969Y-127608390D02*
X42595588Y-127560771D01*
X42595588Y-127560771D02*
X42690826Y-127513152D01*
X42690826Y-127513152D02*
X42833683Y-127513152D01*
X42833683Y-127513152D02*
X42928921Y-127560771D01*
X42928921Y-127560771D02*
X42976540Y-127608390D01*
X42976540Y-127608390D02*
X43024159Y-127703628D01*
X43024159Y-127703628D02*
X43024159Y-127989342D01*
X43024159Y-127989342D02*
X42976540Y-128084580D01*
X42976540Y-128084580D02*
X42928921Y-128132200D01*
X42928921Y-128132200D02*
X42833683Y-128179819D01*
X42833683Y-128179819D02*
X42690826Y-128179819D01*
X43881302Y-128179819D02*
X43881302Y-127179819D01*
X43881302Y-128132200D02*
X43786064Y-128179819D01*
X43786064Y-128179819D02*
X43595588Y-128179819D01*
X43595588Y-128179819D02*
X43500350Y-128132200D01*
X43500350Y-128132200D02*
X43452731Y-128084580D01*
X43452731Y-128084580D02*
X43405112Y-127989342D01*
X43405112Y-127989342D02*
X43405112Y-127703628D01*
X43405112Y-127703628D02*
X43452731Y-127608390D01*
X43452731Y-127608390D02*
X43500350Y-127560771D01*
X43500350Y-127560771D02*
X43595588Y-127513152D01*
X43595588Y-127513152D02*
X43786064Y-127513152D01*
X43786064Y-127513152D02*
X43881302Y-127560771D01*
X44738445Y-128132200D02*
X44643207Y-128179819D01*
X44643207Y-128179819D02*
X44452731Y-128179819D01*
X44452731Y-128179819D02*
X44357493Y-128132200D01*
X44357493Y-128132200D02*
X44309874Y-128036961D01*
X44309874Y-128036961D02*
X44309874Y-127656009D01*
X44309874Y-127656009D02*
X44357493Y-127560771D01*
X44357493Y-127560771D02*
X44452731Y-127513152D01*
X44452731Y-127513152D02*
X44643207Y-127513152D01*
X44643207Y-127513152D02*
X44738445Y-127560771D01*
X44738445Y-127560771D02*
X44786064Y-127656009D01*
X44786064Y-127656009D02*
X44786064Y-127751247D01*
X44786064Y-127751247D02*
X44309874Y-127846485D01*
X92060588Y-100869819D02*
X91489160Y-100869819D01*
X91774874Y-100869819D02*
X91774874Y-99869819D01*
X91774874Y-99869819D02*
X91679636Y-100012676D01*
X91679636Y-100012676D02*
X91584398Y-100107914D01*
X91584398Y-100107914D02*
X91489160Y-100155533D01*
X92489160Y-100869819D02*
X92489160Y-99869819D01*
X93060588Y-100869819D02*
X92632017Y-100298390D01*
X93060588Y-99869819D02*
X92489160Y-100441247D01*
X93441541Y-100869819D02*
X93679636Y-100869819D01*
X93679636Y-100869819D02*
X93679636Y-100679342D01*
X93679636Y-100679342D02*
X93584398Y-100631723D01*
X93584398Y-100631723D02*
X93489160Y-100536485D01*
X93489160Y-100536485D02*
X93441541Y-100393628D01*
X93441541Y-100393628D02*
X93441541Y-100155533D01*
X93441541Y-100155533D02*
X93489160Y-100012676D01*
X93489160Y-100012676D02*
X93584398Y-99917438D01*
X93584398Y-99917438D02*
X93727255Y-99869819D01*
X93727255Y-99869819D02*
X93917731Y-99869819D01*
X93917731Y-99869819D02*
X94060588Y-99917438D01*
X94060588Y-99917438D02*
X94155826Y-100012676D01*
X94155826Y-100012676D02*
X94203445Y-100155533D01*
X94203445Y-100155533D02*
X94203445Y-100393628D01*
X94203445Y-100393628D02*
X94155826Y-100536485D01*
X94155826Y-100536485D02*
X94060588Y-100631723D01*
X94060588Y-100631723D02*
X93965350Y-100679342D01*
X93965350Y-100679342D02*
X93965350Y-100869819D01*
X93965350Y-100869819D02*
X94203445Y-100869819D01*
X85674580Y-135116792D02*
X85722200Y-135164411D01*
X85722200Y-135164411D02*
X85769819Y-135307268D01*
X85769819Y-135307268D02*
X85769819Y-135402506D01*
X85769819Y-135402506D02*
X85722200Y-135545363D01*
X85722200Y-135545363D02*
X85626961Y-135640601D01*
X85626961Y-135640601D02*
X85531723Y-135688220D01*
X85531723Y-135688220D02*
X85341247Y-135735839D01*
X85341247Y-135735839D02*
X85198390Y-135735839D01*
X85198390Y-135735839D02*
X85007914Y-135688220D01*
X85007914Y-135688220D02*
X84912676Y-135640601D01*
X84912676Y-135640601D02*
X84817438Y-135545363D01*
X84817438Y-135545363D02*
X84769819Y-135402506D01*
X84769819Y-135402506D02*
X84769819Y-135307268D01*
X84769819Y-135307268D02*
X84817438Y-135164411D01*
X84817438Y-135164411D02*
X84865057Y-135116792D01*
X85722200Y-134307268D02*
X85769819Y-134402506D01*
X85769819Y-134402506D02*
X85769819Y-134592982D01*
X85769819Y-134592982D02*
X85722200Y-134688220D01*
X85722200Y-134688220D02*
X85626961Y-134735839D01*
X85626961Y-134735839D02*
X85246009Y-134735839D01*
X85246009Y-134735839D02*
X85150771Y-134688220D01*
X85150771Y-134688220D02*
X85103152Y-134592982D01*
X85103152Y-134592982D02*
X85103152Y-134402506D01*
X85103152Y-134402506D02*
X85150771Y-134307268D01*
X85150771Y-134307268D02*
X85246009Y-134259649D01*
X85246009Y-134259649D02*
X85341247Y-134259649D01*
X85341247Y-134259649D02*
X85436485Y-134735839D01*
X85103152Y-133831077D02*
X85769819Y-133831077D01*
X85198390Y-133831077D02*
X85150771Y-133783458D01*
X85150771Y-133783458D02*
X85103152Y-133688220D01*
X85103152Y-133688220D02*
X85103152Y-133545363D01*
X85103152Y-133545363D02*
X85150771Y-133450125D01*
X85150771Y-133450125D02*
X85246009Y-133402506D01*
X85246009Y-133402506D02*
X85769819Y-133402506D01*
X85103152Y-133069172D02*
X85103152Y-132688220D01*
X84769819Y-132926315D02*
X85626961Y-132926315D01*
X85626961Y-132926315D02*
X85722200Y-132878696D01*
X85722200Y-132878696D02*
X85769819Y-132783458D01*
X85769819Y-132783458D02*
X85769819Y-132688220D01*
X85722200Y-131973934D02*
X85769819Y-132069172D01*
X85769819Y-132069172D02*
X85769819Y-132259648D01*
X85769819Y-132259648D02*
X85722200Y-132354886D01*
X85722200Y-132354886D02*
X85626961Y-132402505D01*
X85626961Y-132402505D02*
X85246009Y-132402505D01*
X85246009Y-132402505D02*
X85150771Y-132354886D01*
X85150771Y-132354886D02*
X85103152Y-132259648D01*
X85103152Y-132259648D02*
X85103152Y-132069172D01*
X85103152Y-132069172D02*
X85150771Y-131973934D01*
X85150771Y-131973934D02*
X85246009Y-131926315D01*
X85246009Y-131926315D02*
X85341247Y-131926315D01*
X85341247Y-131926315D02*
X85436485Y-132402505D01*
X85769819Y-131497743D02*
X85103152Y-131497743D01*
X85293628Y-131497743D02*
X85198390Y-131450124D01*
X85198390Y-131450124D02*
X85150771Y-131402505D01*
X85150771Y-131402505D02*
X85103152Y-131307267D01*
X85103152Y-131307267D02*
X85103152Y-131212029D01*
X52140588Y-123699819D02*
X51569160Y-123699819D01*
X51854874Y-123699819D02*
X51854874Y-122699819D01*
X51854874Y-122699819D02*
X51759636Y-122842676D01*
X51759636Y-122842676D02*
X51664398Y-122937914D01*
X51664398Y-122937914D02*
X51569160Y-122985533D01*
X52759636Y-122699819D02*
X52854874Y-122699819D01*
X52854874Y-122699819D02*
X52950112Y-122747438D01*
X52950112Y-122747438D02*
X52997731Y-122795057D01*
X52997731Y-122795057D02*
X53045350Y-122890295D01*
X53045350Y-122890295D02*
X53092969Y-123080771D01*
X53092969Y-123080771D02*
X53092969Y-123318866D01*
X53092969Y-123318866D02*
X53045350Y-123509342D01*
X53045350Y-123509342D02*
X52997731Y-123604580D01*
X52997731Y-123604580D02*
X52950112Y-123652200D01*
X52950112Y-123652200D02*
X52854874Y-123699819D01*
X52854874Y-123699819D02*
X52759636Y-123699819D01*
X52759636Y-123699819D02*
X52664398Y-123652200D01*
X52664398Y-123652200D02*
X52616779Y-123604580D01*
X52616779Y-123604580D02*
X52569160Y-123509342D01*
X52569160Y-123509342D02*
X52521541Y-123318866D01*
X52521541Y-123318866D02*
X52521541Y-123080771D01*
X52521541Y-123080771D02*
X52569160Y-122890295D01*
X52569160Y-122890295D02*
X52616779Y-122795057D01*
X52616779Y-122795057D02*
X52664398Y-122747438D01*
X52664398Y-122747438D02*
X52759636Y-122699819D01*
X53712017Y-122699819D02*
X53807255Y-122699819D01*
X53807255Y-122699819D02*
X53902493Y-122747438D01*
X53902493Y-122747438D02*
X53950112Y-122795057D01*
X53950112Y-122795057D02*
X53997731Y-122890295D01*
X53997731Y-122890295D02*
X54045350Y-123080771D01*
X54045350Y-123080771D02*
X54045350Y-123318866D01*
X54045350Y-123318866D02*
X53997731Y-123509342D01*
X53997731Y-123509342D02*
X53950112Y-123604580D01*
X53950112Y-123604580D02*
X53902493Y-123652200D01*
X53902493Y-123652200D02*
X53807255Y-123699819D01*
X53807255Y-123699819D02*
X53712017Y-123699819D01*
X53712017Y-123699819D02*
X53616779Y-123652200D01*
X53616779Y-123652200D02*
X53569160Y-123604580D01*
X53569160Y-123604580D02*
X53521541Y-123509342D01*
X53521541Y-123509342D02*
X53473922Y-123318866D01*
X53473922Y-123318866D02*
X53473922Y-123080771D01*
X53473922Y-123080771D02*
X53521541Y-122890295D01*
X53521541Y-122890295D02*
X53569160Y-122795057D01*
X53569160Y-122795057D02*
X53616779Y-122747438D01*
X53616779Y-122747438D02*
X53712017Y-122699819D01*
X54426303Y-123699819D02*
X54664398Y-123699819D01*
X54664398Y-123699819D02*
X54664398Y-123509342D01*
X54664398Y-123509342D02*
X54569160Y-123461723D01*
X54569160Y-123461723D02*
X54473922Y-123366485D01*
X54473922Y-123366485D02*
X54426303Y-123223628D01*
X54426303Y-123223628D02*
X54426303Y-122985533D01*
X54426303Y-122985533D02*
X54473922Y-122842676D01*
X54473922Y-122842676D02*
X54569160Y-122747438D01*
X54569160Y-122747438D02*
X54712017Y-122699819D01*
X54712017Y-122699819D02*
X54902493Y-122699819D01*
X54902493Y-122699819D02*
X55045350Y-122747438D01*
X55045350Y-122747438D02*
X55140588Y-122842676D01*
X55140588Y-122842676D02*
X55188207Y-122985533D01*
X55188207Y-122985533D02*
X55188207Y-123223628D01*
X55188207Y-123223628D02*
X55140588Y-123366485D01*
X55140588Y-123366485D02*
X55045350Y-123461723D01*
X55045350Y-123461723D02*
X54950112Y-123509342D01*
X54950112Y-123509342D02*
X54950112Y-123699819D01*
X54950112Y-123699819D02*
X55188207Y-123699819D01*
X52165588Y-93479819D02*
X51594160Y-93479819D01*
X51879874Y-93479819D02*
X51879874Y-92479819D01*
X51879874Y-92479819D02*
X51784636Y-92622676D01*
X51784636Y-92622676D02*
X51689398Y-92717914D01*
X51689398Y-92717914D02*
X51594160Y-92765533D01*
X52784636Y-92479819D02*
X52879874Y-92479819D01*
X52879874Y-92479819D02*
X52975112Y-92527438D01*
X52975112Y-92527438D02*
X53022731Y-92575057D01*
X53022731Y-92575057D02*
X53070350Y-92670295D01*
X53070350Y-92670295D02*
X53117969Y-92860771D01*
X53117969Y-92860771D02*
X53117969Y-93098866D01*
X53117969Y-93098866D02*
X53070350Y-93289342D01*
X53070350Y-93289342D02*
X53022731Y-93384580D01*
X53022731Y-93384580D02*
X52975112Y-93432200D01*
X52975112Y-93432200D02*
X52879874Y-93479819D01*
X52879874Y-93479819D02*
X52784636Y-93479819D01*
X52784636Y-93479819D02*
X52689398Y-93432200D01*
X52689398Y-93432200D02*
X52641779Y-93384580D01*
X52641779Y-93384580D02*
X52594160Y-93289342D01*
X52594160Y-93289342D02*
X52546541Y-93098866D01*
X52546541Y-93098866D02*
X52546541Y-92860771D01*
X52546541Y-92860771D02*
X52594160Y-92670295D01*
X52594160Y-92670295D02*
X52641779Y-92575057D01*
X52641779Y-92575057D02*
X52689398Y-92527438D01*
X52689398Y-92527438D02*
X52784636Y-92479819D01*
X53737017Y-92479819D02*
X53832255Y-92479819D01*
X53832255Y-92479819D02*
X53927493Y-92527438D01*
X53927493Y-92527438D02*
X53975112Y-92575057D01*
X53975112Y-92575057D02*
X54022731Y-92670295D01*
X54022731Y-92670295D02*
X54070350Y-92860771D01*
X54070350Y-92860771D02*
X54070350Y-93098866D01*
X54070350Y-93098866D02*
X54022731Y-93289342D01*
X54022731Y-93289342D02*
X53975112Y-93384580D01*
X53975112Y-93384580D02*
X53927493Y-93432200D01*
X53927493Y-93432200D02*
X53832255Y-93479819D01*
X53832255Y-93479819D02*
X53737017Y-93479819D01*
X53737017Y-93479819D02*
X53641779Y-93432200D01*
X53641779Y-93432200D02*
X53594160Y-93384580D01*
X53594160Y-93384580D02*
X53546541Y-93289342D01*
X53546541Y-93289342D02*
X53498922Y-93098866D01*
X53498922Y-93098866D02*
X53498922Y-92860771D01*
X53498922Y-92860771D02*
X53546541Y-92670295D01*
X53546541Y-92670295D02*
X53594160Y-92575057D01*
X53594160Y-92575057D02*
X53641779Y-92527438D01*
X53641779Y-92527438D02*
X53737017Y-92479819D01*
X54451303Y-93479819D02*
X54689398Y-93479819D01*
X54689398Y-93479819D02*
X54689398Y-93289342D01*
X54689398Y-93289342D02*
X54594160Y-93241723D01*
X54594160Y-93241723D02*
X54498922Y-93146485D01*
X54498922Y-93146485D02*
X54451303Y-93003628D01*
X54451303Y-93003628D02*
X54451303Y-92765533D01*
X54451303Y-92765533D02*
X54498922Y-92622676D01*
X54498922Y-92622676D02*
X54594160Y-92527438D01*
X54594160Y-92527438D02*
X54737017Y-92479819D01*
X54737017Y-92479819D02*
X54927493Y-92479819D01*
X54927493Y-92479819D02*
X55070350Y-92527438D01*
X55070350Y-92527438D02*
X55165588Y-92622676D01*
X55165588Y-92622676D02*
X55213207Y-92765533D01*
X55213207Y-92765533D02*
X55213207Y-93003628D01*
X55213207Y-93003628D02*
X55165588Y-93146485D01*
X55165588Y-93146485D02*
X55070350Y-93241723D01*
X55070350Y-93241723D02*
X54975112Y-93289342D01*
X54975112Y-93289342D02*
X54975112Y-93479819D01*
X54975112Y-93479819D02*
X55213207Y-93479819D01*
X40910714Y-115329819D02*
X41244047Y-116329819D01*
X41244047Y-116329819D02*
X41577380Y-115329819D01*
X42339285Y-116329819D02*
X42339285Y-115806009D01*
X42339285Y-115806009D02*
X42291666Y-115710771D01*
X42291666Y-115710771D02*
X42196428Y-115663152D01*
X42196428Y-115663152D02*
X42005952Y-115663152D01*
X42005952Y-115663152D02*
X41910714Y-115710771D01*
X42339285Y-116282200D02*
X42244047Y-116329819D01*
X42244047Y-116329819D02*
X42005952Y-116329819D01*
X42005952Y-116329819D02*
X41910714Y-116282200D01*
X41910714Y-116282200D02*
X41863095Y-116186961D01*
X41863095Y-116186961D02*
X41863095Y-116091723D01*
X41863095Y-116091723D02*
X41910714Y-115996485D01*
X41910714Y-115996485D02*
X42005952Y-115948866D01*
X42005952Y-115948866D02*
X42244047Y-115948866D01*
X42244047Y-115948866D02*
X42339285Y-115901247D01*
X42958333Y-116329819D02*
X42863095Y-116282200D01*
X42863095Y-116282200D02*
X42815476Y-116186961D01*
X42815476Y-116186961D02*
X42815476Y-115329819D01*
X43244048Y-115663152D02*
X43482143Y-116329819D01*
X43482143Y-116329819D02*
X43720238Y-115663152D01*
X44482143Y-116282200D02*
X44386905Y-116329819D01*
X44386905Y-116329819D02*
X44196429Y-116329819D01*
X44196429Y-116329819D02*
X44101191Y-116282200D01*
X44101191Y-116282200D02*
X44053572Y-116186961D01*
X44053572Y-116186961D02*
X44053572Y-115806009D01*
X44053572Y-115806009D02*
X44101191Y-115710771D01*
X44101191Y-115710771D02*
X44196429Y-115663152D01*
X44196429Y-115663152D02*
X44386905Y-115663152D01*
X44386905Y-115663152D02*
X44482143Y-115710771D01*
X44482143Y-115710771D02*
X44529762Y-115806009D01*
X44529762Y-115806009D02*
X44529762Y-115901247D01*
X44529762Y-115901247D02*
X44053572Y-115996485D01*
X45672620Y-115425057D02*
X45720239Y-115377438D01*
X45720239Y-115377438D02*
X45815477Y-115329819D01*
X45815477Y-115329819D02*
X46053572Y-115329819D01*
X46053572Y-115329819D02*
X46148810Y-115377438D01*
X46148810Y-115377438D02*
X46196429Y-115425057D01*
X46196429Y-115425057D02*
X46244048Y-115520295D01*
X46244048Y-115520295D02*
X46244048Y-115615533D01*
X46244048Y-115615533D02*
X46196429Y-115758390D01*
X46196429Y-115758390D02*
X45625001Y-116329819D01*
X45625001Y-116329819D02*
X46244048Y-116329819D01*
X41310714Y-89329819D02*
X41644047Y-90329819D01*
X41644047Y-90329819D02*
X41977380Y-89329819D01*
X42739285Y-90329819D02*
X42739285Y-89806009D01*
X42739285Y-89806009D02*
X42691666Y-89710771D01*
X42691666Y-89710771D02*
X42596428Y-89663152D01*
X42596428Y-89663152D02*
X42405952Y-89663152D01*
X42405952Y-89663152D02*
X42310714Y-89710771D01*
X42739285Y-90282200D02*
X42644047Y-90329819D01*
X42644047Y-90329819D02*
X42405952Y-90329819D01*
X42405952Y-90329819D02*
X42310714Y-90282200D01*
X42310714Y-90282200D02*
X42263095Y-90186961D01*
X42263095Y-90186961D02*
X42263095Y-90091723D01*
X42263095Y-90091723D02*
X42310714Y-89996485D01*
X42310714Y-89996485D02*
X42405952Y-89948866D01*
X42405952Y-89948866D02*
X42644047Y-89948866D01*
X42644047Y-89948866D02*
X42739285Y-89901247D01*
X43358333Y-90329819D02*
X43263095Y-90282200D01*
X43263095Y-90282200D02*
X43215476Y-90186961D01*
X43215476Y-90186961D02*
X43215476Y-89329819D01*
X43644048Y-89663152D02*
X43882143Y-90329819D01*
X43882143Y-90329819D02*
X44120238Y-89663152D01*
X44882143Y-90282200D02*
X44786905Y-90329819D01*
X44786905Y-90329819D02*
X44596429Y-90329819D01*
X44596429Y-90329819D02*
X44501191Y-90282200D01*
X44501191Y-90282200D02*
X44453572Y-90186961D01*
X44453572Y-90186961D02*
X44453572Y-89806009D01*
X44453572Y-89806009D02*
X44501191Y-89710771D01*
X44501191Y-89710771D02*
X44596429Y-89663152D01*
X44596429Y-89663152D02*
X44786905Y-89663152D01*
X44786905Y-89663152D02*
X44882143Y-89710771D01*
X44882143Y-89710771D02*
X44929762Y-89806009D01*
X44929762Y-89806009D02*
X44929762Y-89901247D01*
X44929762Y-89901247D02*
X44453572Y-89996485D01*
X46644048Y-90329819D02*
X46072620Y-90329819D01*
X46358334Y-90329819D02*
X46358334Y-89329819D01*
X46358334Y-89329819D02*
X46263096Y-89472676D01*
X46263096Y-89472676D02*
X46167858Y-89567914D01*
X46167858Y-89567914D02*
X46072620Y-89615533D01*
X102324819Y-115571904D02*
X103134342Y-115571904D01*
X103134342Y-115571904D02*
X103229580Y-115524285D01*
X103229580Y-115524285D02*
X103277200Y-115476666D01*
X103277200Y-115476666D02*
X103324819Y-115381428D01*
X103324819Y-115381428D02*
X103324819Y-115190952D01*
X103324819Y-115190952D02*
X103277200Y-115095714D01*
X103277200Y-115095714D02*
X103229580Y-115048095D01*
X103229580Y-115048095D02*
X103134342Y-115000476D01*
X103134342Y-115000476D02*
X102324819Y-115000476D01*
X103277200Y-114571904D02*
X103324819Y-114429047D01*
X103324819Y-114429047D02*
X103324819Y-114190952D01*
X103324819Y-114190952D02*
X103277200Y-114095714D01*
X103277200Y-114095714D02*
X103229580Y-114048095D01*
X103229580Y-114048095D02*
X103134342Y-114000476D01*
X103134342Y-114000476D02*
X103039104Y-114000476D01*
X103039104Y-114000476D02*
X102943866Y-114048095D01*
X102943866Y-114048095D02*
X102896247Y-114095714D01*
X102896247Y-114095714D02*
X102848628Y-114190952D01*
X102848628Y-114190952D02*
X102801009Y-114381428D01*
X102801009Y-114381428D02*
X102753390Y-114476666D01*
X102753390Y-114476666D02*
X102705771Y-114524285D01*
X102705771Y-114524285D02*
X102610533Y-114571904D01*
X102610533Y-114571904D02*
X102515295Y-114571904D01*
X102515295Y-114571904D02*
X102420057Y-114524285D01*
X102420057Y-114524285D02*
X102372438Y-114476666D01*
X102372438Y-114476666D02*
X102324819Y-114381428D01*
X102324819Y-114381428D02*
X102324819Y-114143333D01*
X102324819Y-114143333D02*
X102372438Y-114000476D01*
X102801009Y-113238571D02*
X102848628Y-113095714D01*
X102848628Y-113095714D02*
X102896247Y-113048095D01*
X102896247Y-113048095D02*
X102991485Y-113000476D01*
X102991485Y-113000476D02*
X103134342Y-113000476D01*
X103134342Y-113000476D02*
X103229580Y-113048095D01*
X103229580Y-113048095D02*
X103277200Y-113095714D01*
X103277200Y-113095714D02*
X103324819Y-113190952D01*
X103324819Y-113190952D02*
X103324819Y-113571904D01*
X103324819Y-113571904D02*
X102324819Y-113571904D01*
X102324819Y-113571904D02*
X102324819Y-113238571D01*
X102324819Y-113238571D02*
X102372438Y-113143333D01*
X102372438Y-113143333D02*
X102420057Y-113095714D01*
X102420057Y-113095714D02*
X102515295Y-113048095D01*
X102515295Y-113048095D02*
X102610533Y-113048095D01*
X102610533Y-113048095D02*
X102705771Y-113095714D01*
X102705771Y-113095714D02*
X102753390Y-113143333D01*
X102753390Y-113143333D02*
X102801009Y-113238571D01*
X102801009Y-113238571D02*
X102801009Y-113571904D01*
D12*
X49915000Y-95430000D02*
X49915000Y-95760000D01*
X49915000Y-98170000D02*
X49915000Y-97840000D01*
X56455000Y-95430000D02*
X49915000Y-95430000D01*
X56455000Y-95760000D02*
X56455000Y-95430000D01*
X56455000Y-97840000D02*
X56455000Y-98170000D01*
X56455000Y-98170000D02*
X49915000Y-98170000D01*
X25765000Y-91360000D02*
X25765000Y-96560000D01*
X25765000Y-91360000D02*
X34395000Y-91360000D01*
X25765000Y-96560000D02*
X34395000Y-96560000D01*
X34395000Y-91360000D02*
X34395000Y-96560000D01*
X34395000Y-92330000D02*
X34745000Y-92330000D01*
X34395000Y-93050000D02*
X34745000Y-93050000D01*
X34395000Y-94870000D02*
X34805000Y-94870000D01*
X34395000Y-95590000D02*
X34805000Y-95590000D01*
X25880000Y-117710000D02*
X25880000Y-122910000D01*
X25880000Y-117710000D02*
X34510000Y-117710000D01*
X25880000Y-122910000D02*
X34510000Y-122910000D01*
X34510000Y-117710000D02*
X34510000Y-122910000D01*
X34510000Y-118680000D02*
X34860000Y-118680000D01*
X34510000Y-119400000D02*
X34860000Y-119400000D01*
X34510000Y-121220000D02*
X34920000Y-121220000D01*
X34510000Y-121940000D02*
X34920000Y-121940000D01*
X49980000Y-117980000D02*
X56520000Y-117980000D01*
X49980000Y-118310000D02*
X49980000Y-117980000D01*
X49980000Y-120390000D02*
X49980000Y-120720000D01*
X49980000Y-120720000D02*
X56520000Y-120720000D01*
X56520000Y-117980000D02*
X56520000Y-118310000D01*
X56520000Y-120720000D02*
X56520000Y-120390000D01*
X39870000Y-120090000D02*
X39870000Y-121590000D01*
X41120000Y-124090000D02*
X45620000Y-124090000D01*
X45620000Y-117590000D02*
X41120000Y-117590000D01*
X46870000Y-121590000D02*
X46870000Y-120090000D01*
X40370000Y-112410000D02*
X40370000Y-111610000D01*
X40770000Y-112010000D02*
X39970000Y-112010000D01*
X40240000Y-109910000D02*
G75*
G02*
X32000000Y-109910000I-4120000J0D01*
G01*
X32000000Y-109910000D02*
G75*
G02*
X40240000Y-109910000I4120000J0D01*
G01*
X64295000Y-129520000D02*
X72035000Y-129520000D01*
X64295000Y-138150000D02*
X64295000Y-129520000D01*
X64295000Y-138150000D02*
X72035000Y-138150000D01*
X64415000Y-138150000D02*
X64415000Y-129520000D01*
X65265000Y-129520000D02*
X65265000Y-129170000D01*
X65985000Y-129520000D02*
X65985000Y-129170000D01*
X67805000Y-129520000D02*
X67805000Y-129110000D01*
X68525000Y-129520000D02*
X68525000Y-129110000D01*
X70345000Y-129520000D02*
X70345000Y-129110000D01*
X71065000Y-129520000D02*
X71065000Y-129110000D01*
X72035000Y-138150000D02*
X72035000Y-129520000D01*
X51170000Y-109960000D02*
X51170000Y-111460000D01*
X52420000Y-113960000D02*
X56920000Y-113960000D01*
X56920000Y-107460000D02*
X52420000Y-107460000D01*
X58170000Y-111460000D02*
X58170000Y-109960000D01*
X38660000Y-101420000D02*
X39680000Y-101420000D01*
X39680000Y-99950000D02*
X39680000Y-102890000D01*
X39680000Y-102890000D02*
X45120000Y-102890000D01*
X40460000Y-99950000D02*
X40460000Y-102890000D01*
X40580000Y-99950000D02*
X40580000Y-102890000D01*
X40700000Y-99950000D02*
X40700000Y-102890000D01*
X45120000Y-99950000D02*
X39680000Y-99950000D01*
X45120000Y-102890000D02*
X45120000Y-99950000D01*
X46140000Y-101420000D02*
X45120000Y-101420000D01*
X39755000Y-93740000D02*
X39755000Y-95240000D01*
X41005000Y-97740000D02*
X45505000Y-97740000D01*
X45505000Y-91240000D02*
X41005000Y-91240000D01*
X46755000Y-95240000D02*
X46755000Y-93740000D01*
X88770000Y-111430000D02*
X88770000Y-117970000D01*
X88770000Y-117970000D02*
X89100000Y-117970000D01*
X89100000Y-111430000D02*
X88770000Y-111430000D01*
X91180000Y-111430000D02*
X91510000Y-111430000D01*
X91510000Y-111430000D02*
X91510000Y-117970000D01*
X91510000Y-117970000D02*
X91180000Y-117970000D01*
X50030000Y-121780000D02*
X50030000Y-122110000D01*
X50030000Y-124520000D02*
X50030000Y-124190000D01*
X56570000Y-121780000D02*
X50030000Y-121780000D01*
X56570000Y-122110000D02*
X56570000Y-121780000D01*
X56570000Y-124190000D02*
X56570000Y-124520000D01*
X56570000Y-124520000D02*
X50030000Y-124520000D01*
X49865000Y-91630000D02*
X56405000Y-91630000D01*
X49865000Y-91960000D02*
X49865000Y-91630000D01*
X49865000Y-94040000D02*
X49865000Y-94370000D01*
X49865000Y-94370000D02*
X56405000Y-94370000D01*
X56405000Y-91630000D02*
X56405000Y-91960000D01*
X56405000Y-94370000D02*
X56405000Y-94040000D01*
X89680000Y-95250000D02*
X96220000Y-95250000D01*
X89680000Y-95580000D02*
X89680000Y-95250000D01*
X89680000Y-97660000D02*
X89680000Y-97990000D01*
X89680000Y-97990000D02*
X96220000Y-97990000D01*
X96220000Y-95250000D02*
X96220000Y-95580000D01*
X96220000Y-97990000D02*
X96220000Y-97660000D01*
X51265000Y-103370000D02*
X54865000Y-103370000D01*
X51226522Y-103358478D02*
G75*
G02*
X53065000Y-98919999I1838478J1838478D01*
G01*
X53065000Y-98920000D02*
G75*
G02*
X54903478Y-103358478I0J-2600000D01*
G01*
X75385000Y-129510000D02*
X83125000Y-129510000D01*
X75385000Y-138140000D02*
X75385000Y-129510000D01*
X75385000Y-138140000D02*
X83125000Y-138140000D01*
X76355000Y-129510000D02*
X76355000Y-129160000D01*
X77075000Y-129510000D02*
X77075000Y-129160000D01*
X78895000Y-129510000D02*
X78895000Y-129100000D01*
X79615000Y-129510000D02*
X79615000Y-129100000D01*
X81435000Y-129510000D02*
X81435000Y-129100000D01*
X82155000Y-129510000D02*
X82155000Y-129100000D01*
X83125000Y-138140000D02*
X83125000Y-129510000D01*
X79680000Y-91440000D02*
X86220000Y-91440000D01*
X79680000Y-91770000D02*
X79680000Y-91440000D01*
X79680000Y-93850000D02*
X79680000Y-94180000D01*
X79680000Y-94180000D02*
X86220000Y-94180000D01*
X86220000Y-91440000D02*
X86220000Y-91770000D01*
X86220000Y-94180000D02*
X86220000Y-93850000D01*
X79680000Y-99060000D02*
X86220000Y-99060000D01*
X79680000Y-99390000D02*
X79680000Y-99060000D01*
X79680000Y-101470000D02*
X79680000Y-101800000D01*
X79680000Y-101800000D02*
X86220000Y-101800000D01*
X86220000Y-99060000D02*
X86220000Y-99390000D01*
X86220000Y-101800000D02*
X86220000Y-101470000D01*
X89680000Y-99060000D02*
X96220000Y-99060000D01*
X89680000Y-99390000D02*
X89680000Y-99060000D01*
X89680000Y-101470000D02*
X89680000Y-101800000D01*
X89680000Y-101800000D02*
X96220000Y-101800000D01*
X96220000Y-99060000D02*
X96220000Y-99390000D01*
X96220000Y-101800000D02*
X96220000Y-101470000D01*
X51380000Y-129720000D02*
X54980000Y-129720000D01*
X51341522Y-129708478D02*
G75*
G02*
X53180000Y-125269999I1838478J1838478D01*
G01*
X53180000Y-125270000D02*
G75*
G02*
X55018478Y-129708478I0J-2600000D01*
G01*
X86950000Y-129550000D02*
X94690000Y-129550000D01*
X86950000Y-138180000D02*
X86950000Y-129550000D01*
X86950000Y-138180000D02*
X94690000Y-138180000D01*
X87920000Y-129550000D02*
X87920000Y-129200000D01*
X88640000Y-129550000D02*
X88640000Y-129200000D01*
X90460000Y-129550000D02*
X90460000Y-129140000D01*
X91180000Y-129550000D02*
X91180000Y-129140000D01*
X93000000Y-129550000D02*
X93000000Y-129140000D01*
X93720000Y-129550000D02*
X93720000Y-129140000D01*
X94690000Y-138180000D02*
X94690000Y-129550000D01*
X89680000Y-91440000D02*
X96220000Y-91440000D01*
X89680000Y-91770000D02*
X89680000Y-91440000D01*
X89680000Y-93850000D02*
X89680000Y-94180000D01*
X89680000Y-94180000D02*
X96220000Y-94180000D01*
X96220000Y-91440000D02*
X96220000Y-91770000D01*
X96220000Y-94180000D02*
X96220000Y-93850000D01*
X38775000Y-127770000D02*
X39795000Y-127770000D01*
X39795000Y-126300000D02*
X39795000Y-129240000D01*
X39795000Y-129240000D02*
X45235000Y-129240000D01*
X40575000Y-126300000D02*
X40575000Y-129240000D01*
X40695000Y-126300000D02*
X40695000Y-129240000D01*
X40815000Y-126300000D02*
X40815000Y-129240000D01*
X45235000Y-126300000D02*
X39795000Y-126300000D01*
X45235000Y-129240000D02*
X45235000Y-126300000D01*
X46255000Y-127770000D02*
X45235000Y-127770000D01*
X94930000Y-111470000D02*
X94930000Y-118010000D01*
X94930000Y-118010000D02*
X95260000Y-118010000D01*
X95260000Y-111470000D02*
X94930000Y-111470000D01*
X97340000Y-111470000D02*
X97670000Y-111470000D01*
X97670000Y-111470000D02*
X97670000Y-118010000D01*
X97670000Y-118010000D02*
X97340000Y-118010000D01*
X91870000Y-111450000D02*
X91870000Y-117990000D01*
X91870000Y-117990000D02*
X92200000Y-117990000D01*
X92200000Y-111450000D02*
X91870000Y-111450000D01*
X94280000Y-111450000D02*
X94610000Y-111450000D01*
X94610000Y-111450000D02*
X94610000Y-117990000D01*
X94610000Y-117990000D02*
X94280000Y-117990000D01*
X79870000Y-95250000D02*
X86410000Y-95250000D01*
X79870000Y-95580000D02*
X79870000Y-95250000D01*
X79870000Y-97660000D02*
X79870000Y-97990000D01*
X79870000Y-97990000D02*
X86410000Y-97990000D01*
X86410000Y-95250000D02*
X86410000Y-95580000D01*
X86410000Y-97990000D02*
X86410000Y-97660000D01*
%LPC*%
D13*
X60027500Y-125635000D03*
X60027500Y-123095000D03*
D14*
X56995000Y-96800000D03*
D15*
X49375000Y-96800000D03*
D16*
X35855000Y-92690000D03*
D13*
X35855000Y-95230000D03*
D16*
X35970000Y-119040000D03*
D13*
X35970000Y-121580000D03*
D14*
X49440000Y-119350000D03*
D15*
X57060000Y-119350000D03*
D17*
X40120000Y-118590000D03*
X46620000Y-118590000D03*
X40120000Y-123090000D03*
X46620000Y-123090000D03*
D18*
X37370000Y-109910000D03*
D14*
X34870000Y-109910000D03*
D16*
X65625000Y-128060000D03*
D13*
X68165000Y-128060000D03*
X70705000Y-128060000D03*
D17*
X51420000Y-108460000D03*
X57920000Y-108460000D03*
X51420000Y-112960000D03*
X57920000Y-112960000D03*
D19*
X37320000Y-101420000D03*
D20*
X47480000Y-101420000D03*
D17*
X40005000Y-92240000D03*
X46505000Y-92240000D03*
X40005000Y-96740000D03*
X46505000Y-96740000D03*
D14*
X90140000Y-110890000D03*
D15*
X90140000Y-118510000D03*
D14*
X57110000Y-123150000D03*
D15*
X49490000Y-123150000D03*
D14*
X49325000Y-93000000D03*
D15*
X56945000Y-93000000D03*
D14*
X89140000Y-96620000D03*
D15*
X96760000Y-96620000D03*
D21*
X51295000Y-101520000D03*
X53065000Y-101520000D03*
X54795000Y-101520000D03*
D16*
X76715000Y-128050000D03*
D13*
X79255000Y-128050000D03*
X81795000Y-128050000D03*
D14*
X79140000Y-92810000D03*
D15*
X86760000Y-92810000D03*
D13*
X59980000Y-99340000D03*
X59980000Y-96800000D03*
D14*
X79140000Y-100430000D03*
D15*
X86760000Y-100430000D03*
D14*
X89140000Y-100430000D03*
D15*
X96760000Y-100430000D03*
D21*
X51410000Y-127870000D03*
X53180000Y-127870000D03*
X54910000Y-127870000D03*
D16*
X88280000Y-128090000D03*
D13*
X90820000Y-128090000D03*
X93360000Y-128090000D03*
X99960000Y-93320000D03*
X99960000Y-96860000D03*
X99960000Y-100320000D03*
D14*
X89140000Y-92810000D03*
D15*
X96760000Y-92810000D03*
D19*
X37435000Y-127770000D03*
D20*
X47595000Y-127770000D03*
D13*
X102440000Y-93310000D03*
X102440000Y-96850000D03*
X102440000Y-100310000D03*
D14*
X96300000Y-110930000D03*
D15*
X96300000Y-118550000D03*
D14*
X93240000Y-110910000D03*
D15*
X93240000Y-118530000D03*
D14*
X79330000Y-96620000D03*
D15*
X86950000Y-96620000D03*
D22*
X45960000Y-86750000D03*
D13*
X45960000Y-84210000D03*
X48500000Y-86750000D03*
X48500000Y-84210000D03*
X51040000Y-86750000D03*
X51040000Y-84210000D03*
X53580000Y-86750000D03*
X53580000Y-84210000D03*
X56120000Y-86750000D03*
X56120000Y-84210000D03*
X58660000Y-86750000D03*
X58660000Y-84210000D03*
X61200000Y-86750000D03*
X61200000Y-84210000D03*
X63740000Y-86750000D03*
X63740000Y-84210000D03*
X66280000Y-86750000D03*
X66280000Y-84210000D03*
X68820000Y-86750000D03*
X68820000Y-84210000D03*
X71360000Y-86750000D03*
X71360000Y-84210000D03*
X73900000Y-86750000D03*
X73900000Y-84210000D03*
X76440000Y-86750000D03*
X76440000Y-84210000D03*
X78980000Y-86750000D03*
X78980000Y-84210000D03*
X81520000Y-86750000D03*
X81520000Y-84210000D03*
X84060000Y-86750000D03*
X84060000Y-84210000D03*
X86600000Y-86750000D03*
X86600000Y-84210000D03*
X89140000Y-86750000D03*
X89140000Y-84210000D03*
X91680000Y-86750000D03*
X91680000Y-84210000D03*
X94220000Y-86750000D03*
X94220000Y-84210000D03*
D18*
X67310000Y-106690000D03*
D15*
X69850000Y-106690000D03*
X72390000Y-106690000D03*
X74930000Y-106690000D03*
X77470000Y-106690000D03*
X80010000Y-106690000D03*
X82550000Y-106690000D03*
X85090000Y-106690000D03*
X87630000Y-106690000D03*
X90170000Y-106690000D03*
X92710000Y-106690000D03*
X95250000Y-106690000D03*
X97790000Y-106690000D03*
X100330000Y-106690000D03*
X102870000Y-106690000D03*
X102870000Y-121930000D03*
X100330000Y-121930000D03*
X97790000Y-121930000D03*
X95250000Y-121930000D03*
X92710000Y-121930000D03*
X90170000Y-121930000D03*
X87630000Y-121930000D03*
X85090000Y-121930000D03*
X82550000Y-121930000D03*
X80010000Y-121930000D03*
X77470000Y-121930000D03*
X74930000Y-121930000D03*
X72390000Y-121930000D03*
X69850000Y-121930000D03*
X67310000Y-121930000D03*
D23*
X41100000Y-85530000D03*
X99100000Y-85530000D03*
X41100000Y-134530000D03*
X99100000Y-134530000D03*
%LPD*%
M02*
