M48
; DRILL file {KiCad 8.0.8} date 2025-05-09T16:41:30+0300
; FORMAT={-:-/ absolute / metric / decimal}
; #@! TF.CreationDate,2025-05-09T16:41:30+03:00
; #@! TF.GenerationSoftware,Kicad,Pcbnew,8.0.8
; #@! TF.FileFunction,Plated,1,4,PTH
FMAT,2
METRIC
; #@! TA.AperFunction,Plated,PTH,ViaDrill
T1C0.300
; #@! TA.AperFunction,Plated,PTH,ComponentDrill
T2C0.750
; #@! TA.AperFunction,Plated,PTH,ComponentDrill
T3C0.800
; #@! TA.AperFunction,Plated,PTH,ComponentDrill
T4C1.000
; #@! TA.AperFunction,Plated,PTH,ComponentDrill
T5C1.100
; #@! TA.AperFunction,Plated,PTH,ComponentDrill
T6C2.500
%
G90
G05
T1
X67.75Y-102.5
T2
X51.295Y-101.52
X51.41Y-127.87
X53.065Y-101.52
X53.18Y-127.87
X54.795Y-101.52
X54.91Y-127.87
T3
X34.87Y-109.91
X37.37Y-109.91
X49.325Y-93.0
X49.375Y-96.8
X49.44Y-119.35
X49.49Y-123.15
X56.945Y-93.0
X56.995Y-96.8
X57.06Y-119.35
X57.11Y-123.15
X79.14Y-92.81
X79.14Y-100.43
X79.33Y-96.62
X86.76Y-92.81
X86.76Y-100.43
X86.95Y-96.62
X89.14Y-92.81
X89.14Y-96.62
X89.14Y-100.43
X90.14Y-110.89
X90.14Y-118.51
X93.24Y-110.91
X93.24Y-118.53
X96.3Y-110.93
X96.3Y-118.55
X96.76Y-92.81
X96.76Y-96.62
X96.76Y-100.43
T4
X35.855Y-92.69
X35.855Y-95.23
X35.97Y-119.04
X35.97Y-121.58
X45.96Y-84.21
X45.96Y-86.75
X48.5Y-84.21
X48.5Y-86.75
X51.04Y-84.21
X51.04Y-86.75
X53.58Y-84.21
X53.58Y-86.75
X56.12Y-84.21
X56.12Y-86.75
X58.66Y-84.21
X58.66Y-86.75
X59.98Y-96.8
X59.98Y-99.34
X60.027Y-123.095
X60.027Y-125.635
X61.2Y-84.21
X61.2Y-86.75
X63.74Y-84.21
X63.74Y-86.75
X65.625Y-128.06
X66.28Y-84.21
X66.28Y-86.75
X67.31Y-106.69
X67.31Y-121.93
X68.165Y-128.06
X68.82Y-84.21
X68.82Y-86.75
X69.85Y-106.69
X69.85Y-121.93
X70.705Y-128.06
X71.36Y-84.21
X71.36Y-86.75
X72.39Y-106.69
X72.39Y-121.93
X73.9Y-84.21
X73.9Y-86.75
X74.93Y-106.69
X74.93Y-121.93
X76.44Y-84.21
X76.44Y-86.75
X76.715Y-128.05
X77.47Y-106.69
X77.47Y-121.93
X78.98Y-84.21
X78.98Y-86.75
X79.255Y-128.05
X80.01Y-106.69
X80.01Y-121.93
X81.52Y-84.21
X81.52Y-86.75
X81.795Y-128.05
X82.55Y-106.69
X82.55Y-121.93
X84.06Y-84.21
X84.06Y-86.75
X85.09Y-106.69
X85.09Y-121.93
X86.6Y-84.21
X86.6Y-86.75
X87.63Y-106.69
X87.63Y-121.93
X88.28Y-128.09
X89.14Y-84.21
X89.14Y-86.75
X90.17Y-106.69
X90.17Y-121.93
X90.82Y-128.09
X91.68Y-84.21
X91.68Y-86.75
X92.71Y-106.69
X92.71Y-121.93
X93.36Y-128.09
X94.22Y-84.21
X94.22Y-86.75
X95.25Y-106.69
X95.25Y-121.93
X97.79Y-106.69
X97.79Y-121.93
X99.96Y-93.32
X99.96Y-96.86
X99.96Y-100.32
X100.33Y-106.69
X100.33Y-121.93
X102.44Y-93.31
X102.44Y-96.85
X102.44Y-100.31
X102.87Y-106.69
X102.87Y-121.93
T5
X37.32Y-101.42
X37.435Y-127.77
X40.005Y-92.24
X40.005Y-96.74
X40.12Y-118.59
X40.12Y-123.09
X46.505Y-92.24
X46.505Y-96.74
X46.62Y-118.59
X46.62Y-123.09
X47.48Y-101.42
X47.595Y-127.77
X51.42Y-108.46
X51.42Y-112.96
X57.92Y-108.46
X57.92Y-112.96
T6
X41.1Y-85.53
X41.1Y-134.53
X99.1Y-85.53
X99.1Y-134.53
M30
