G04 #@! TF.GenerationSoftware,KiCad,Pcbnew,8.0.8*
G04 #@! TF.CreationDate,2025-05-09T16:42:09+03:00*
G04 #@! TF.ProjectId,Lick_Valves_final,4c69636b-5f56-4616-9c76-65735f66696e,rev?*
G04 #@! TF.SameCoordinates,Original*
G04 #@! TF.FileFunction,Copper,L3,Inr*
G04 #@! TF.FilePolarity,Positive*
%FSLAX46Y46*%
G04 Gerber Fmt 4.6, Leading zero omitted, Abs format (unit mm)*
G04 Created by KiCad (PCBNEW 8.0.8) date 2025-05-09 16:42:09*
%MOMM*%
%LPD*%
G01*
G04 APERTURE LIST*
G04 #@! TA.AperFunction,ComponentPad*
%ADD10O,1.700000X1.700000*%
G04 #@! TD*
G04 #@! TA.AperFunction,ComponentPad*
%ADD11C,1.600000*%
G04 #@! TD*
G04 #@! TA.AperFunction,ComponentPad*
%ADD12O,1.600000X1.600000*%
G04 #@! TD*
G04 #@! TA.AperFunction,ComponentPad*
%ADD13R,1.700000X1.700000*%
G04 #@! TD*
G04 #@! TA.AperFunction,ComponentPad*
%ADD14C,2.000000*%
G04 #@! TD*
G04 #@! TA.AperFunction,ComponentPad*
%ADD15R,1.600000X1.600000*%
G04 #@! TD*
G04 #@! TA.AperFunction,ComponentPad*
%ADD16R,2.200000X2.200000*%
G04 #@! TD*
G04 #@! TA.AperFunction,ComponentPad*
%ADD17O,2.200000X2.200000*%
G04 #@! TD*
G04 #@! TA.AperFunction,ComponentPad*
%ADD18O,1.050000X1.500000*%
G04 #@! TD*
G04 #@! TA.AperFunction,ComponentPad*
%ADD19C,1.700000*%
G04 #@! TD*
G04 #@! TA.AperFunction,ComponentPad*
%ADD20C,5.000000*%
G04 #@! TD*
G04 #@! TA.AperFunction,ViaPad*
%ADD21C,0.600000*%
G04 #@! TD*
G04 APERTURE END LIST*
D10*
X60027500Y-125635000D03*
X60027500Y-123095000D03*
D11*
X56995000Y-96800000D03*
D12*
X49375000Y-96800000D03*
D13*
X35855000Y-92690000D03*
D10*
X35855000Y-95230000D03*
D13*
X35970000Y-119040000D03*
D10*
X35970000Y-121580000D03*
D11*
X49440000Y-119350000D03*
D12*
X57060000Y-119350000D03*
D14*
X40120000Y-118590000D03*
X46620000Y-118590000D03*
X40120000Y-123090000D03*
X46620000Y-123090000D03*
D15*
X37370000Y-109910000D03*
D11*
X34870000Y-109910000D03*
D13*
X65625000Y-128060000D03*
D10*
X68165000Y-128060000D03*
X70705000Y-128060000D03*
D14*
X51420000Y-108460000D03*
X57920000Y-108460000D03*
X51420000Y-112960000D03*
X57920000Y-112960000D03*
D16*
X37320000Y-101420000D03*
D17*
X47480000Y-101420000D03*
D14*
X40005000Y-92240000D03*
X46505000Y-92240000D03*
X40005000Y-96740000D03*
X46505000Y-96740000D03*
D11*
X90140000Y-110890000D03*
D12*
X90140000Y-118510000D03*
D11*
X57110000Y-123150000D03*
D12*
X49490000Y-123150000D03*
D11*
X49325000Y-93000000D03*
D12*
X56945000Y-93000000D03*
D11*
X89140000Y-96620000D03*
D12*
X96760000Y-96620000D03*
D18*
X51295000Y-101520000D03*
X53065000Y-101520000D03*
X54795000Y-101520000D03*
D13*
X76715000Y-128050000D03*
D10*
X79255000Y-128050000D03*
X81795000Y-128050000D03*
D11*
X79140000Y-92810000D03*
D12*
X86760000Y-92810000D03*
D10*
X59980000Y-99340000D03*
X59980000Y-96800000D03*
D11*
X79140000Y-100430000D03*
D12*
X86760000Y-100430000D03*
D11*
X89140000Y-100430000D03*
D12*
X96760000Y-100430000D03*
D18*
X51410000Y-127870000D03*
X53180000Y-127870000D03*
X54910000Y-127870000D03*
D13*
X88280000Y-128090000D03*
D10*
X90820000Y-128090000D03*
X93360000Y-128090000D03*
X99960000Y-93320000D03*
X99960000Y-96860000D03*
X99960000Y-100320000D03*
D11*
X89140000Y-92810000D03*
D12*
X96760000Y-92810000D03*
D16*
X37435000Y-127770000D03*
D17*
X47595000Y-127770000D03*
D10*
X102440000Y-93310000D03*
X102440000Y-96850000D03*
X102440000Y-100310000D03*
D11*
X96300000Y-110930000D03*
D12*
X96300000Y-118550000D03*
D11*
X93240000Y-110910000D03*
D12*
X93240000Y-118530000D03*
D11*
X79330000Y-96620000D03*
D12*
X86950000Y-96620000D03*
D19*
X45960000Y-86750000D03*
D10*
X45960000Y-84210000D03*
X48500000Y-86750000D03*
X48500000Y-84210000D03*
X51040000Y-86750000D03*
X51040000Y-84210000D03*
X53580000Y-86750000D03*
X53580000Y-84210000D03*
X56120000Y-86750000D03*
X56120000Y-84210000D03*
X58660000Y-86750000D03*
X58660000Y-84210000D03*
X61200000Y-86750000D03*
X61200000Y-84210000D03*
X63740000Y-86750000D03*
X63740000Y-84210000D03*
X66280000Y-86750000D03*
X66280000Y-84210000D03*
X68820000Y-86750000D03*
X68820000Y-84210000D03*
X71360000Y-86750000D03*
X71360000Y-84210000D03*
X73900000Y-86750000D03*
X73900000Y-84210000D03*
X76440000Y-86750000D03*
X76440000Y-84210000D03*
X78980000Y-86750000D03*
X78980000Y-84210000D03*
X81520000Y-86750000D03*
X81520000Y-84210000D03*
X84060000Y-86750000D03*
X84060000Y-84210000D03*
X86600000Y-86750000D03*
X86600000Y-84210000D03*
X89140000Y-86750000D03*
X89140000Y-84210000D03*
X91680000Y-86750000D03*
X91680000Y-84210000D03*
X94220000Y-86750000D03*
X94220000Y-84210000D03*
D15*
X67310000Y-106690000D03*
D12*
X69850000Y-106690000D03*
X72390000Y-106690000D03*
X74930000Y-106690000D03*
X77470000Y-106690000D03*
X80010000Y-106690000D03*
X82550000Y-106690000D03*
X85090000Y-106690000D03*
X87630000Y-106690000D03*
X90170000Y-106690000D03*
X92710000Y-106690000D03*
X95250000Y-106690000D03*
X97790000Y-106690000D03*
X100330000Y-106690000D03*
X102870000Y-106690000D03*
X102870000Y-121930000D03*
X100330000Y-121930000D03*
X97790000Y-121930000D03*
X95250000Y-121930000D03*
X92710000Y-121930000D03*
X90170000Y-121930000D03*
X87630000Y-121930000D03*
X85090000Y-121930000D03*
X82550000Y-121930000D03*
X80010000Y-121930000D03*
X77470000Y-121930000D03*
X74930000Y-121930000D03*
X72390000Y-121930000D03*
X69850000Y-121930000D03*
X67310000Y-121930000D03*
D20*
X41100000Y-85530000D03*
X99100000Y-85530000D03*
X41100000Y-134530000D03*
X99100000Y-134530000D03*
D21*
X67750000Y-102500000D03*
M02*
